<svg width="308" height="731" viewBox="0 0 308 731" fill="none" xmlns="http://www.w3.org/2000/svg">
<rect width="308" height="731" transform="matrix(-1 0 0 1 308 0)" fill="#F4EFFA"/>
<path d="M0 559.069H308V559.434H0V559.069Z" fill="#EBEBEB"/>
<path d="M30.8618 582.592H51.2637V582.957H30.8618V582.592Z" fill="#EBEBEB"/>
<path d="M103.968 586.569H109.322V586.934H103.968V586.569Z" fill="#EBEBEB"/>
<path d="M51.8796 569.025H63.7007V569.39H51.8796V569.025Z" fill="#EBEBEB"/>
<path d="M249.08 571.481H275.685V571.846H249.08V571.481Z" fill="#EBEBEB"/>
<path d="M239.692 571.481H243.591V571.846H239.692V571.481Z" fill="#EBEBEB"/>
<path d="M169.308 577.651H227.014V578.016H169.308V577.651Z" fill="#EBEBEB"/>
<path d="M162.008 493.864H280.951C281.883 493.86 282.776 492.979 283.435 491.413C284.093 489.848 284.463 487.727 284.463 485.516V88.6849C284.455 86.4861 284.081 84.3837 283.424 82.8343C282.766 81.2849 281.878 80.4138 280.951 80.41H162.008C161.075 80.41 160.18 81.2895 159.521 82.8551C158.861 84.4206 158.491 86.544 158.491 88.758V485.516C158.491 487.73 158.861 489.853 159.521 491.419C160.18 492.984 161.075 493.864 162.008 493.864ZM280.951 80.7024C281.842 80.7063 282.696 81.549 283.326 83.0456C283.955 84.5422 284.309 86.5704 284.309 88.6849V485.516C284.309 487.63 283.955 489.658 283.326 491.155C282.696 492.651 281.842 493.494 280.951 493.498H162.008C161.116 493.494 160.262 492.652 159.632 491.156C159.001 489.66 158.646 487.631 158.645 485.516V88.6849C158.646 86.569 159.001 84.5409 159.632 83.0447C160.262 81.5485 161.116 80.7063 162.008 80.7024H280.951Z" fill="#EBEBEB"/>
<path d="M28.7611 493.864H147.711C148.643 493.86 149.537 492.979 150.196 491.414C150.855 489.85 151.226 487.728 151.228 485.516V88.6849C151.218 86.4848 150.844 84.3824 150.185 82.8334C149.527 81.2844 148.638 80.4137 147.711 80.41H28.7611C27.8357 80.4176 26.9488 81.2905 26.2927 82.8394C25.6366 84.3884 25.2641 86.4886 25.256 88.6849V485.516C25.256 487.725 25.6249 489.843 26.2819 491.408C26.9389 492.973 27.8303 493.856 28.7611 493.864ZM147.711 80.7024C148.602 80.7063 149.457 81.5485 150.087 83.0447C150.718 84.5409 151.072 86.569 151.074 88.6849V485.516C151.072 487.631 150.718 489.66 150.087 491.156C149.457 492.652 148.602 493.494 147.711 493.498H28.7611C27.8696 493.494 27.015 492.652 26.3846 491.156C25.7542 489.66 25.3993 487.631 25.3977 485.516V88.6849C25.3993 86.569 25.7542 84.5409 26.3846 83.0447C27.015 81.5485 27.8696 80.7063 28.7611 80.7024H147.711Z" fill="#EBEBEB"/>
<path d="M277.939 559.069H149.306L234.025 435.369L277.939 559.069Z" fill="#F0F0F0"/>
<path d="M219.974 455.881L234.025 435.369L243.973 463.396L236.396 458.132L231.973 469.741L228.425 458.132L224.575 462.811L223.177 458.132L217.756 463.644L219.974 455.881Z" fill="#FAFAFA"/>
<path d="M253.213 559.069H91.7655L166.492 357.181L253.213 559.069Z" fill="#E6E6E6"/>
<path d="M188.213 407.752L166.492 357.181L147.778 407.752L156.636 396.918L160.08 414.302L167.078 402.006L171.217 412.489L174.279 405.427L180.488 416.933L181.8 401.962L188.213 407.752Z" fill="#F0F0F0"/>
<path d="M153.901 411.802L147.427 431.816V416.933L153.901 411.802Z" fill="#F0F0F0"/>
<path d="M187.246 430.661L201.968 458.132L197.496 433.936L187.246 430.661Z" fill="#F0F0F0"/>
<path d="M192.962 559.069H45.3683L113.837 407.752L192.962 559.069Z" fill="#F5F5F5"/>
<path d="M131.793 442.094L113.837 407.752L94.6299 450.194L105.435 438.966L106.66 455.881L113.215 443.41L122.233 452.284L122.405 440.077L127.832 445.632L127.654 439.521L131.793 442.094Z" fill="#FAFAFA"/>
<path d="M102.773 448.41L99.0774 467.445L96.367 458.834L102.773 448.41Z" fill="#FAFAFA"/>
<path d="M146.479 485.282L135.532 475.486L141.421 473.147L146.479 485.282Z" fill="#FAFAFA"/>
<path d="M119.165 559.069H34.1511L69.7498 455.881L119.165 559.069Z" fill="#F5F5F5"/>
<path d="M79.0945 475.413L69.7498 455.881L58.2922 489.083L69.7498 474.039L70.797 483.41L73.686 476.671L79.0945 475.413Z" fill="#FAFAFA"/>
<path d="M116.264 307.912C98.607 307.912 84.2933 273.94 84.2933 232.034C84.2933 190.128 98.607 156.156 116.264 156.156C133.92 156.156 148.234 190.128 148.234 232.034C148.234 273.94 133.92 307.912 116.264 307.912Z" fill="#FAFAFA"/>
<path d="M237.634 311.114C231.678 295.865 223.516 285.09 217.159 285.09C213.173 285.09 210.629 289.359 209.717 296.318C206.951 292.356 204.081 289.973 201.617 289.973C197.305 289.973 195.457 297.283 196.56 307.678C194.299 305.43 191.897 304.096 189.451 303.73C185.04 303.263 182.385 307.488 181.868 314.345C180.92 313.223 179.888 312.553 178.831 312.371C176.293 312.108 175.443 316.362 176.934 321.874C177.026 322.225 177.125 322.561 177.223 322.897H247.447C246.616 317.415 240.782 311.406 237.634 311.114Z" fill="#F5F5F5"/>
<path d="M73.5196 311.406C70.7538 304.33 66.9715 299.301 64.0209 299.301C62.1729 299.301 60.9901 301.289 60.5713 304.505C59.4485 302.765 58.1526 301.757 56.8137 301.581C54.7994 301.581 53.9369 304.988 54.4605 309.798C53.4119 308.76 52.2986 308.137 51.1649 307.956C49.1198 307.751 47.8878 309.71 47.6476 312.883C47.2064 312.367 46.7274 312.06 46.2369 311.976C45.0604 311.845 44.6661 313.818 45.3561 316.362L45.4916 316.845H78.0657C77.6838 314.33 74.9795 311.596 73.5196 311.406Z" fill="#FAFAFA"/>
<path d="M105.274 175.031C98.5909 157.925 89.4371 145.791 82.3038 145.791C77.8317 145.791 74.9796 150.586 73.9632 158.378C70.8524 153.992 67.6369 151.273 64.871 151.273C60.0108 151.273 57.9287 159.504 59.1977 171.127C56.6609 168.631 53.9675 167.148 51.2266 166.741C46.2986 166.215 43.2926 170.952 42.7135 178.656C41.6513 177.401 40.4965 176.646 39.3132 176.434C36.4611 176.142 35.5125 180.908 37.1818 187.107C37.2866 187.487 37.3975 187.867 37.5083 188.233H116.264C115.352 182.092 108.81 175.338 105.274 175.031Z" fill="#F0F0F0"/>
<path d="M263.648 194.022C263.468 193.97 263.287 193.945 263.106 193.949C260.605 189.212 258.006 186.186 256.077 186.186C254.685 186.186 253.866 187.765 253.613 190.44C248.957 181.259 244.01 175.294 240.4 175.294C237.487 175.294 235.977 179.168 235.885 185.528C233.544 181.931 231.259 179.768 229.454 179.768C226.288 179.768 225.53 186.434 227.206 195.85C225.474 193.872 223.606 192.653 221.692 192.253C218.434 191.829 216.838 195.659 217.023 201.902C216.292 200.915 215.482 200.303 214.645 200.104C212.865 199.885 212.526 203.32 213.795 207.926H274.12C271.619 200.923 267.061 194.797 263.648 194.022Z" fill="#F5F5F5"/>
<path d="M154 625.093C88.0372 625.093 34.5638 617.683 34.5638 608.543C34.5638 599.403 88.0372 591.993 154 591.993C219.963 591.993 273.436 599.403 273.436 608.543C273.436 617.683 219.963 625.093 154 625.093Z" fill="#F5F5F5"/>
<path d="M120.223 331.392H164.718C166.777 331.408 168.818 330.916 170.713 329.948C172.609 328.979 174.319 327.554 175.74 325.759C177.16 323.965 178.261 321.84 178.973 319.515C179.685 317.19 179.995 314.714 179.882 312.24L175.969 212.985C175.721 207.846 173.863 203.01 170.769 199.454C167.676 195.897 163.577 193.883 159.299 193.818H114.804C112.745 193.8 110.706 194.29 108.811 195.257C106.916 196.225 105.206 197.649 103.786 199.442C102.366 201.235 101.267 203.36 100.556 205.684C99.845 208.008 99.5372 210.483 99.6518 212.956L103.564 312.24C103.816 317.375 105.674 322.204 108.764 325.757C111.855 329.31 115.949 331.324 120.223 331.392Z" fill="#9085DE"/>
<path opacity="0.3" d="M120.223 331.392H164.718C166.777 331.408 168.818 330.916 170.713 329.948C172.609 328.979 174.319 327.554 175.74 325.759C177.16 323.965 178.261 321.84 178.973 319.515C179.685 317.19 179.995 314.714 179.882 312.24L175.969 212.985C175.721 207.846 173.863 203.01 170.769 199.454C167.676 195.897 163.577 193.883 159.299 193.818H114.804C112.745 193.8 110.706 194.29 108.811 195.257C106.916 196.225 105.206 197.649 103.786 199.442C102.366 201.235 101.267 203.36 100.556 205.684C99.845 208.008 99.5372 210.483 99.6518 212.956L103.564 312.24C103.816 317.375 105.674 322.204 108.764 325.757C111.855 329.31 115.949 331.324 120.223 331.392Z" fill="#06031E"/>
<path d="M164.876 176.274H110.964C108.744 176.286 106.619 177.353 105.051 179.243C103.482 181.132 102.599 183.691 102.592 186.362C102.595 189.034 103.478 191.595 105.047 193.486C106.616 195.376 108.743 196.442 110.964 196.45H164.876C167.097 196.442 169.226 195.377 170.797 193.487C172.368 191.596 173.253 189.035 173.26 186.362C173.25 183.69 172.364 181.131 170.794 179.242C169.223 177.352 167.096 176.286 164.876 176.274Z" fill="#9085DE"/>
<path d="M157.148 116.771C184.256 140.426 183.284 162.648 175.046 172.955C167.464 182.444 150.903 190.222 131.644 181.508C116.176 174.505 127.829 144.344 127.999 136.318C128.169 128.291 157.148 116.771 157.148 116.771Z" fill="#3A383C"/>
<path d="M165.216 124.695C178.096 131.844 184.657 151.83 184.596 160.558C180.611 147.4 173.126 132.926 163.855 128.905C164.536 127.005 165.216 124.695 165.216 124.695Z" fill="#3A383C"/>
<path d="M170.186 118.437C171.535 123.072 161.972 128.189 156.431 130.133C150.891 132.078 150.514 119.899 150.514 119.899C150.514 119.899 168.886 113.949 170.186 118.437Z" fill="#9085DE"/>
<path opacity="0.3" d="M170.186 118.437C171.535 123.072 161.972 128.189 156.431 130.133C150.891 132.078 150.514 119.899 150.514 119.899C150.514 119.899 168.886 113.949 170.186 118.437Z" fill="#06031E"/>
<path d="M204.037 574.523C203.211 577.652 204.584 587.432 206.856 594.684L192.409 575.678C192.409 575.678 194.863 571.116 204.037 574.523Z" fill="#9085DE"/>
<path d="M130.478 576.35C129.639 579.494 128.57 588.777 130.854 596.014C119.214 598.251 119.846 588.704 118.849 577.52C118.849 577.52 121.304 572.959 130.478 576.35Z" fill="#9085DE"/>
<path d="M192.494 473.557L166.978 479.785C171.121 530.721 190.611 590.108 190.611 590.108H201.826C201.826 590.108 192.895 482.826 192.494 473.557Z" fill="#FF8B7B"/>
<path d="M201.376 577.593C199.873 568.06 198.983 558.402 198.715 548.704C198.788 547.008 200.404 542.315 195.617 544.318C190.83 546.321 176.771 546.306 176.905 549.084C177.039 551.862 178.825 551.482 179.858 555.458C180.89 559.435 187.67 587.462 189.797 592.008C198.132 595.941 203.6 590.093 201.376 577.593Z" fill="#E6E6E6"/>
<path opacity="0.2" d="M192.494 473.557C192.567 475.151 192.895 479.668 193.369 486.028C187.294 486.949 173.649 485.429 167.197 481.788C167.136 481.116 167.075 480.458 167.026 479.785L192.494 473.557Z" fill="#06031E"/>
<path d="M131.438 478.294L104.621 480.268C100.478 531.204 114.099 590.108 114.099 590.108H125.314C125.314 590.108 125.314 525.21 131.438 478.294Z" fill="#FF8B7B"/>
<path d="M126.164 580.532C125.882 570.831 126.227 561.118 127.197 551.482C127.476 549.83 129.627 545.488 124.682 546.613C119.737 547.739 105.873 545.151 105.593 547.827C105.314 550.502 107.185 550.546 107.695 554.669C108.206 558.792 111.341 587.725 112.884 592.681C120.624 598.061 126.772 593.28 126.164 580.532Z" fill="#E6E6E6"/>
<path opacity="0.2" d="M104.621 480.268L131.438 478.294C130.879 482.534 130.368 486.92 129.919 491.452C121.168 490.704 112.547 488.489 104.305 484.873C104.39 483.294 104.5 481.832 104.621 480.268Z" fill="#06031E"/>
<path d="M131.656 597.754C125.581 592.418 129.117 576.716 129.117 576.716C125.711 575.765 122.165 575.81 118.776 576.847C115.204 585.634 120.04 600.327 131.656 597.754Z" fill="#9085DE"/>
<path opacity="0.2" d="M131.656 597.754C125.581 592.418 129.117 576.716 129.117 576.716C125.711 575.765 122.165 575.81 118.776 576.847C115.204 585.634 120.04 600.327 131.656 597.754Z" fill="#06031E"/>
<path d="M110.854 601.088H141.717C146.869 601.088 141.814 590.854 131.668 594.435C121.523 598.017 119.797 585.488 121.717 575.737C112.665 573.163 108.351 576.935 108.351 576.935C110.429 586.117 111.778 594.655 110.854 601.088Z" fill="#9085DE"/>
<path d="M111.426 599.874H142.762C143.265 599.874 143.673 600.365 143.673 600.971V602.681C143.673 603.287 143.265 603.778 142.762 603.778H111.426C110.922 603.778 110.514 603.287 110.514 602.681V600.971C110.514 600.365 110.922 599.874 111.426 599.874Z" fill="#9085DE"/>
<path opacity="0.5" d="M111.426 599.874H142.762C143.265 599.874 143.673 600.365 143.673 600.971V602.681C143.673 603.287 143.265 603.778 142.762 603.778H111.426C110.922 603.778 110.514 603.287 110.514 602.681V600.971C110.514 600.365 110.922 599.874 111.426 599.874Z" fill="white"/>
<path d="M208.909 595.327C202.287 590.751 202.287 575.108 202.287 575.108C202.287 575.108 199.857 573.646 193.782 576.087C190.963 585.313 197.196 599.289 208.909 595.327Z" fill="#9085DE"/>
<path opacity="0.2" d="M208.909 595.327C202.287 590.751 202.287 575.108 202.287 575.108C202.287 575.108 199.857 573.646 193.782 576.087C190.963 585.313 197.196 599.289 208.909 595.327Z" fill="#06031E"/>
<path d="M187.829 601.161L219.517 597.418C224.815 596.789 218.727 587.184 208.582 592.023C198.436 596.862 193.831 584.713 194.961 574.83C185.447 573.368 183.151 577.432 183.151 577.432C186.103 586.321 188.217 594.655 187.829 601.161Z" fill="#9085DE"/>
<path d="M188.655 603.792L220.841 599.976C220.965 599.971 221.086 599.935 221.198 599.873C221.31 599.81 221.41 599.72 221.493 599.61C221.576 599.499 221.639 599.37 221.68 599.23C221.72 599.089 221.737 598.94 221.728 598.792L221.57 597.067C221.543 596.774 221.42 596.507 221.229 596.323C221.037 596.139 220.793 596.055 220.55 596.087L188.363 599.903C188.122 599.929 187.9 600.068 187.743 600.289C187.586 600.511 187.508 600.797 187.525 601.087L187.683 602.813C187.71 603.094 187.826 603.353 188.007 603.535C188.188 603.717 188.419 603.809 188.655 603.792Z" fill="#9085DE"/>
<path opacity="0.5" d="M188.655 603.792L220.841 599.976C220.965 599.971 221.086 599.935 221.198 599.873C221.31 599.81 221.41 599.72 221.493 599.61C221.576 599.499 221.639 599.37 221.68 599.23C221.72 599.089 221.737 598.94 221.728 598.792L221.57 597.067C221.543 596.774 221.42 596.507 221.229 596.323C221.037 596.139 220.793 596.055 220.55 596.087L188.363 599.903C188.122 599.929 187.9 600.068 187.743 600.289C187.586 600.511 187.508 600.797 187.525 601.087L187.683 602.813C187.71 603.094 187.826 603.353 188.007 603.535C188.188 603.717 188.419 603.809 188.655 603.792Z" fill="white"/>
<path d="M151.693 379.96C155.156 393.63 159.493 408.659 164.961 424.873C164.021 443.742 164.558 462.675 166.565 481.423C174.754 484.975 195.422 482.885 196.382 479.858C195.167 459.961 193.952 440.238 192.883 424.873C193.661 372.241 182.567 289.258 182.567 289.258H138.448C138.448 289.258 137.343 323.03 151.693 379.96Z" fill="#9085DE"/>
<path opacity="0.2" d="M146.298 356.232C148.485 367.036 151.304 379.024 154.888 392.051C155.945 365.735 161.838 330.647 162.045 329.448L146.298 356.232Z" fill="#06031E"/>
<path d="M103.868 484.975C116.809 488.25 134.439 486.92 135.46 483.587C136.019 464.815 139.348 446.145 142.337 428.849C144.67 415.428 148.023 397.972 151.62 379.96C160.356 336.232 170.478 289.316 170.478 289.316H131.596C131.596 289.316 106.541 316.626 114.488 430.984C107.513 445.852 104.743 465.355 103.868 484.975Z" fill="#9085DE"/>
<path d="M165.568 213.321C165.836 214.593 166.054 215.529 166.297 216.611C166.54 217.693 166.795 218.658 167.063 219.666C167.585 221.684 168.144 223.687 168.752 225.661C169.967 229.623 171.255 233.482 172.664 237.357C175.541 245.083 178.921 252.524 182.773 259.608C183.782 261.377 184.79 263.132 185.848 264.857L187.488 267.415C188.162 268.544 188.897 269.618 189.687 270.632C190.962 272.221 192.47 273.515 194.134 274.447C195.812 275.332 197.613 275.828 199.444 275.909C202.267 276.034 205.074 275.332 207.621 273.863C211.268 271.712 214.562 268.785 217.342 265.222C218.635 263.661 219.852 262.011 220.987 260.281C222.123 258.563 223.174 256.767 224.134 254.901C224.701 253.817 224.942 252.532 224.819 251.26C224.696 249.988 224.215 248.805 223.456 247.907C222.697 247.01 221.706 246.451 220.647 246.324C219.588 246.197 218.524 246.51 217.633 247.21L217.281 247.488L213.441 250.515C212.141 251.509 210.853 252.474 209.565 253.336C207.351 254.965 204.947 256.187 202.433 256.962C201.497 257.152 200.805 257.05 200.939 256.845C201.126 256.758 201.334 256.758 201.522 256.845C201.789 256.918 201.996 257.064 202.069 257.064C202.324 257.357 201.68 256.216 201.315 255.515L200.1 253.219L197.792 248.497C194.804 242.023 192.143 235.34 189.821 228.482C188.646 225.032 187.536 221.552 186.492 218.044C185.981 216.275 185.471 214.52 184.985 212.766L184.28 210.149L183.648 207.722L183.539 207.298C182.798 204.546 181.201 202.246 179.083 200.88C176.964 199.513 174.488 199.186 172.174 199.966C169.859 200.746 167.885 202.574 166.665 205.066C165.445 207.558 165.074 210.522 165.629 213.336L165.568 213.321Z" fill="#FF8B7B"/>
<path d="M174.256 193.818C183.758 197.064 188.144 207.502 196.127 229.169C193.333 236.626 177.756 242.327 177.756 242.327C177.756 242.327 157.173 207.122 174.256 193.818Z" fill="#3A383C"/>
<path d="M187.294 213.277C187.581 222.362 187.464 231.459 186.941 240.529C186.54 252.357 181.668 270.208 181.753 289.696C176.71 294.082 148.169 293.176 130.721 290.471C131.778 273.687 130.988 247.503 121.535 209.754C119.348 200.982 124.232 192.59 132.033 191.698C134.111 191.464 136.322 191.26 138.594 191.128C146.552 190.484 154.537 190.484 162.494 191.128C165.082 191.391 167.78 191.757 170.356 192.166C179.675 193.643 187.002 202.795 187.294 213.277Z" fill="#3A383C"/>
<path d="M147.719 218.102C155.532 221.684 169.821 221.172 179.833 216.742V219.754C163.782 229.155 147.719 221.435 147.719 221.435C147.719 221.435 144.852 221.084 147.719 218.102Z" fill="#9085DE"/>
<path d="M172.057 217.59C173.393 218.044 174.39 224.315 171.911 225.207C169.432 226.099 162.409 227.503 158.169 225.851C155.848 224.959 155.605 219.33 157.549 218.541C161.194 216.83 169.663 216.801 172.057 217.59Z" fill="#9085DE"/>
<path d="M140.32 158.73C142.397 167.985 144.949 184.929 139.955 191.113C139.955 191.113 143.163 200.997 161.437 199.666C174.803 198.687 163.867 191.113 163.867 191.113C155.143 188.643 154.888 180.996 155.933 173.803L140.32 158.73Z" fill="#FF8B7B"/>
<path opacity="0.2" d="M146.662 164.944L155.896 173.847C155.634 175.535 155.496 177.247 155.483 178.964C152.166 178.394 147.403 174.067 146.796 169.929C146.504 168.29 146.459 166.602 146.662 164.944Z" fill="#06031E"/>
<path d="M133.746 140.221C136.079 155.163 136.796 161.523 143.88 168.686C154.536 179.461 169.177 173.774 170.611 158.54C171.826 144.827 167.841 122.707 155.058 117.78C142.276 112.853 131.413 125.294 133.746 140.221Z" fill="#FF8B7B"/>
<path d="M143.151 133.598C147.051 139.812 145.289 149.139 137.33 149.973C129.372 150.806 128.388 139.183 129.651 135.017C130.915 130.85 143.151 133.598 143.151 133.598Z" fill="#3A383C"/>
<path d="M155.897 116.961C166.079 122.283 160.392 127.063 157.403 128.993C157.251 127.592 156.923 126.226 156.431 124.943C156.431 124.943 150.769 135.587 141.158 136.771C129.008 138.233 130.721 132.984 130.721 132.984C130.721 132.984 137.1 110.645 155.897 116.961Z" fill="#3A383C"/>
<path d="M154.9 116.011C160.538 116.844 169.481 119.373 170.222 126.844C167.427 124.958 160.501 124.388 160.501 124.388L154.9 116.011Z" fill="#3A383C"/>
<path d="M137.221 142.531C140.38 144.607 145.143 148.584 144.159 153.189C142.871 151.303 138.946 149.037 138.946 149.037L137.221 142.531Z" fill="#3A383C"/>
<path d="M153.405 142.721C153.563 143.979 154.22 144.958 154.9 144.9C155.58 144.841 155.994 143.759 155.848 142.502C155.702 141.245 155.022 140.265 154.353 140.324C153.685 140.382 153.26 141.449 153.405 142.721Z" fill="#3A383C"/>
<path d="M166.091 141.815C166.237 143.072 166.905 144.052 167.573 143.993C168.242 143.935 168.679 142.867 168.521 141.596C168.363 140.324 167.707 139.359 167.027 139.417C166.346 139.476 165.933 140.558 166.091 141.815Z" fill="#3A383C"/>
<path d="M166.747 139.52L169.104 138.423C169.104 138.423 168.12 140.908 166.747 139.52Z" fill="#3A383C"/>
<path d="M162.81 144.198C164.072 147.008 165.628 149.612 167.439 151.947C166.224 153.613 163.867 153.116 163.867 153.116L162.81 144.198Z" fill="#FF5652"/>
<path d="M158.546 158.306C159.128 158.373 159.713 158.373 160.295 158.306C160.334 158.303 160.373 158.29 160.407 158.267C160.442 158.245 160.472 158.214 160.496 158.177C160.52 158.14 160.537 158.097 160.547 158.051C160.556 158.006 160.557 157.958 160.551 157.911C160.541 157.812 160.501 157.72 160.438 157.655C160.375 157.59 160.293 157.556 160.21 157.561C158.892 157.688 157.568 157.455 156.335 156.881C155.102 156.306 153.993 155.404 153.09 154.242C153.032 154.178 152.956 154.143 152.877 154.143C152.799 154.143 152.723 154.178 152.665 154.242C152.635 154.276 152.612 154.317 152.596 154.362C152.58 154.407 152.572 154.456 152.572 154.505C152.572 154.554 152.58 154.603 152.596 154.648C152.612 154.693 152.635 154.734 152.665 154.768C154.197 156.777 156.291 158.036 158.546 158.306Z" fill="#3A383C"/>
<path d="M132.592 153.657C133.187 154.921 133.994 156.021 134.963 156.887C135.932 157.753 137.04 158.366 138.217 158.686C141.158 159.33 142.142 155.236 140.915 151.376C139.821 147.897 136.966 143.35 134.208 144.49C131.45 145.631 130.903 150.309 132.592 153.657Z" fill="#FF8B7B"/>
<path d="M150.113 136.303C150.193 136.292 150.271 136.26 150.34 136.21C150.409 136.159 150.468 136.091 150.514 136.011C150.913 135.245 151.464 134.611 152.117 134.165C152.77 133.718 153.505 133.473 154.256 133.452C154.335 133.458 154.414 133.445 154.489 133.412C154.563 133.379 154.631 133.328 154.688 133.262C154.745 133.196 154.79 133.117 154.821 133.029C154.851 132.94 154.865 132.846 154.864 132.75C154.855 132.548 154.784 132.357 154.665 132.214C154.546 132.071 154.388 131.986 154.22 131.976C153.27 131.984 152.338 132.279 151.508 132.833C150.678 133.387 149.977 134.183 149.469 135.148C149.409 135.274 149.379 135.417 149.383 135.561C149.387 135.706 149.425 135.847 149.492 135.967C149.559 136.087 149.653 136.182 149.762 136.242C149.872 136.301 149.993 136.322 150.113 136.303Z" fill="#3A383C"/>
<path d="M168.497 131.99C168.574 131.997 168.651 131.985 168.724 131.955C168.798 131.925 168.865 131.877 168.922 131.815C168.979 131.747 169.024 131.666 169.055 131.577C169.086 131.488 169.102 131.392 169.102 131.296C169.102 131.199 169.086 131.104 169.055 131.015C169.024 130.926 168.979 130.845 168.922 130.777C168.279 129.871 167.474 129.154 166.566 128.678C165.659 128.201 164.674 127.979 163.685 128.028C163.607 128.04 163.533 128.072 163.465 128.12C163.398 128.169 163.34 128.233 163.294 128.31C163.248 128.387 163.216 128.474 163.2 128.567C163.184 128.659 163.184 128.754 163.199 128.847C163.229 129.044 163.319 129.221 163.452 129.343C163.584 129.465 163.75 129.523 163.916 129.505C164.704 129.482 165.485 129.675 166.201 130.07C166.917 130.466 167.548 131.052 168.047 131.786C168.173 131.915 168.332 131.987 168.497 131.99Z" fill="#3A383C"/>
<path d="M154.062 140.411L156.431 139.315C156.431 139.315 155.447 141.8 154.062 140.411Z" fill="#3A383C"/>
<path d="M226.783 235.134L222.907 235.851C222.189 235.978 221.507 236.31 220.918 236.819C220.328 237.327 219.848 237.998 219.517 238.775L216.407 246.172C215.78 247.627 215.453 249.242 215.453 250.88C215.453 252.518 215.78 254.133 216.407 255.588L217.196 257.401C223.709 256.757 230.343 250.281 230.343 250.281L232.397 248.702C232.823 248.384 233.194 247.967 233.486 247.476C233.778 246.985 233.987 246.429 234.1 245.841C234.213 245.252 234.228 244.643 234.144 244.047C234.06 243.452 233.879 242.882 233.612 242.371L231.048 237.415C230.588 236.59 229.943 235.939 229.189 235.536C228.434 235.132 227.6 234.993 226.783 235.134Z" fill="#FF8B7B"/>
<path d="M182.664 293.775C165.101 296.1 147.377 296.056 129.821 293.644C129.64 293.606 129.469 293.52 129.319 293.391C129.17 293.263 129.047 293.095 128.959 292.901C128.871 292.706 128.821 292.491 128.813 292.27C128.804 292.049 128.838 291.829 128.91 291.626C129.335 290.413 129.773 289.184 130.186 287.971C130.273 287.698 130.431 287.468 130.638 287.315C130.844 287.161 131.087 287.094 131.328 287.123C148.211 289.36 165.247 289.36 182.129 287.123C182.431 287.099 182.727 287.219 182.955 287.457C183.183 287.696 183.323 288.033 183.345 288.395C183.442 289.667 183.551 290.924 183.66 292.196C183.69 292.562 183.603 292.927 183.419 293.22C183.234 293.512 182.965 293.711 182.664 293.775Z" fill="#3A383C"/>
<path d="M182.64 277.737C165.169 280.084 147.535 280.084 130.064 277.737C129.299 277.635 128.995 276.626 129.469 275.749C130.101 274.55 129.032 273.088 129.651 271.874C129.784 271.609 129.974 271.392 130.2 271.245C130.427 271.099 130.682 271.028 130.939 271.041C148.307 273.25 165.819 273.25 183.187 271.041C183.328 271.016 183.473 271.031 183.608 271.086C183.744 271.14 183.867 271.233 183.968 271.355C184.068 271.477 184.143 271.627 184.187 271.79C184.231 271.954 184.242 272.128 184.219 272.298L183.928 276.041C183.911 276.46 183.773 276.859 183.538 277.169C183.303 277.478 182.985 277.679 182.64 277.737Z" fill="#9085DE"/>
<path d="M170.271 302.006H170.902C171.274 301.986 171.637 301.876 171.972 301.683C172.307 301.489 172.606 301.216 172.851 300.88C173.096 300.545 173.283 300.153 173.399 299.728C173.515 299.303 173.558 298.855 173.527 298.41C173.77 290.953 164.013 274.535 157.16 273.059C157.091 273.04 157.018 273.05 156.954 273.087C156.891 273.124 156.839 273.186 156.808 273.263C156.767 273.329 156.746 273.408 156.746 273.49C156.746 273.571 156.767 273.651 156.808 273.716C160.975 279.024 162.555 285.807 163.819 291.26C165.265 297.167 166.382 302.006 170.271 302.006ZM158.12 274.14C164.523 276.874 173.102 291.684 172.895 298.337C172.927 298.687 172.899 299.041 172.811 299.377C172.724 299.713 172.581 300.024 172.389 300.291C172.197 300.557 171.962 300.773 171.698 300.925C171.434 301.076 171.146 301.161 170.854 301.173C167.026 301.641 165.994 297.182 164.536 290.939C163.296 285.749 161.814 279.36 158.096 274.097L158.12 274.14Z" fill="white"/>
<path d="M74.196 590.108L77.1608 591.175L150.514 304.433L145.009 302.43L74.196 590.108Z" fill="#9085DE"/>
<path opacity="0.7" d="M74.196 590.108L77.1608 591.175L150.514 304.433L145.009 302.43L74.196 590.108Z" fill="white"/>
<path d="M150.684 272.985L150.878 272.24C150.928 272.041 151.01 271.856 151.12 271.695C151.23 271.535 151.364 271.402 151.517 271.304C151.669 271.206 151.836 271.145 152.008 271.125C152.18 271.105 152.353 271.126 152.519 271.187L158.594 273.409C158.928 273.531 159.209 273.807 159.375 274.177C159.541 274.546 159.579 274.98 159.481 275.383L159.286 276.129C159.236 276.328 159.154 276.513 159.045 276.673C158.935 276.834 158.8 276.967 158.648 277.065C158.496 277.163 158.329 277.223 158.157 277.243C157.985 277.263 157.811 277.242 157.646 277.181L157.415 277.108C157.421 277.137 157.421 277.167 157.415 277.196L150.866 303.249L151.085 303.337C151.417 303.461 151.695 303.738 151.858 304.108C152.022 304.477 152.058 304.909 151.96 305.31L151.777 306.056C151.674 306.455 151.443 306.79 151.137 306.987C150.83 307.184 150.471 307.227 150.137 307.109L144.062 304.886C143.896 304.826 143.743 304.727 143.609 304.595C143.476 304.464 143.365 304.301 143.284 304.118C143.203 303.935 143.152 303.734 143.136 303.527C143.119 303.32 143.136 303.111 143.187 302.913L143.369 302.167C143.47 301.765 143.7 301.427 144.007 301.227C144.314 301.027 144.674 300.981 145.01 301.1L145.265 301.202L151.826 275.135C151.831 275.106 151.831 275.076 151.826 275.047L151.571 274.959C151.237 274.837 150.956 274.562 150.79 274.192C150.624 273.822 150.586 273.389 150.684 272.985Z" fill="#9085DE"/>
<path opacity="0.3" d="M150.684 272.985L150.878 272.24C150.928 272.041 151.01 271.856 151.12 271.695C151.23 271.535 151.364 271.402 151.517 271.304C151.669 271.206 151.836 271.145 152.008 271.125C152.18 271.105 152.353 271.126 152.519 271.187L158.594 273.409C158.928 273.531 159.209 273.807 159.375 274.177C159.541 274.546 159.579 274.98 159.481 275.383L159.286 276.129C159.236 276.328 159.154 276.513 159.045 276.673C158.935 276.834 158.8 276.967 158.648 277.065C158.496 277.163 158.329 277.223 158.157 277.243C157.985 277.263 157.811 277.242 157.646 277.181L157.415 277.108C157.421 277.137 157.421 277.167 157.415 277.196L150.866 303.249L151.085 303.337C151.417 303.461 151.695 303.738 151.858 304.108C152.022 304.477 152.058 304.909 151.96 305.31L151.777 306.056C151.674 306.455 151.443 306.79 151.137 306.987C150.83 307.184 150.471 307.227 150.137 307.109L144.062 304.886C143.896 304.826 143.743 304.727 143.609 304.595C143.476 304.464 143.365 304.301 143.284 304.118C143.203 303.935 143.152 303.734 143.136 303.527C143.119 303.32 143.136 303.111 143.187 302.913L143.369 302.167C143.47 301.765 143.7 301.427 144.007 301.227C144.314 301.027 144.674 300.981 145.01 301.1L145.265 301.202L151.826 275.135C151.831 275.106 151.831 275.076 151.826 275.047L151.571 274.959C151.237 274.837 150.956 274.562 150.79 274.192C150.624 273.822 150.586 273.389 150.684 272.985Z" fill="#06031E"/>
<path d="M243.782 250.661C244.568 250.644 245.339 250.399 246.029 249.944C246.369 249.761 246.675 249.497 246.928 249.168C247.181 248.839 247.376 248.452 247.502 248.03C247.628 247.609 247.682 247.161 247.66 246.713C247.639 246.266 247.543 245.829 247.378 245.427C245.337 238.38 231.266 227.4 224.438 229.038C224.369 229.053 224.307 229.093 224.259 229.153C224.211 229.214 224.18 229.291 224.171 229.374C224.164 229.458 224.179 229.542 224.214 229.616C224.249 229.689 224.301 229.748 224.365 229.783C229.845 232.883 233.381 238.555 236.212 243.014C238.836 247.181 241.011 250.661 243.782 250.661ZM225.92 229.666C232.761 229.666 244.948 239.476 246.746 245.748C246.885 246.059 246.968 246.4 246.992 246.751C247.015 247.102 246.977 247.454 246.881 247.787C246.785 248.12 246.633 248.425 246.434 248.683C246.235 248.941 245.994 249.146 245.726 249.286C242.287 251.421 239.966 247.722 236.746 242.591C234.037 238.292 230.671 233 225.653 229.725L225.92 229.666Z" fill="#E0E0E0"/>
<path d="M243.539 560.707L246.625 560.415L227.804 261.246L222.081 261.801L243.539 560.707Z" fill="#9085DE"/>
<path opacity="0.7" d="M243.539 560.707L246.625 560.415L227.804 261.246L222.081 261.801L243.539 560.707Z" fill="white"/>
<path d="M218.423 231.83L218.363 231.055C218.339 230.636 218.453 230.222 218.68 229.902C218.907 229.582 219.229 229.382 219.578 229.345L225.944 228.731C226.294 228.698 226.64 228.834 226.906 229.108C227.173 229.382 227.338 229.772 227.366 230.193V230.982C227.379 231.19 227.358 231.398 227.304 231.596C227.25 231.794 227.165 231.977 227.052 232.134C226.939 232.292 226.801 232.421 226.646 232.514C226.492 232.608 226.324 232.663 226.151 232.678H225.908C225.908 232.678 225.908 232.678 225.908 232.766L227.804 259.974H228.034C228.207 259.958 228.38 259.983 228.544 260.048C228.709 260.113 228.861 260.216 228.992 260.352C229.123 260.488 229.23 260.654 229.308 260.84C229.385 261.026 229.432 261.228 229.444 261.436V262.211C229.471 262.631 229.358 263.047 229.13 263.368C228.902 263.689 228.578 263.888 228.229 263.921L221.862 264.535C221.512 264.567 221.166 264.432 220.9 264.158C220.634 263.884 220.468 263.494 220.44 263.073V262.298C220.413 261.878 220.526 261.462 220.754 261.141C220.982 260.82 221.306 260.621 221.655 260.588H221.923L220.112 233.453V233.292H219.833C219.66 233.308 219.487 233.283 219.323 233.218C219.158 233.153 219.006 233.05 218.875 232.914C218.744 232.778 218.637 232.612 218.559 232.426C218.482 232.24 218.436 232.038 218.423 231.83Z" fill="#9085DE"/>
<path opacity="0.3" d="M218.423 231.83L218.363 231.055C218.339 230.636 218.453 230.222 218.68 229.902C218.907 229.582 219.229 229.382 219.578 229.345L225.944 228.731C226.294 228.698 226.64 228.834 226.906 229.108C227.173 229.382 227.338 229.772 227.366 230.193V230.982C227.379 231.19 227.358 231.398 227.304 231.596C227.25 231.794 227.165 231.977 227.052 232.134C226.939 232.292 226.801 232.421 226.646 232.514C226.492 232.608 226.324 232.663 226.151 232.678H225.908C225.908 232.678 225.908 232.678 225.908 232.766L227.804 259.974H228.034C228.207 259.958 228.38 259.983 228.544 260.048C228.709 260.113 228.861 260.216 228.992 260.352C229.123 260.488 229.23 260.654 229.308 260.84C229.385 261.026 229.432 261.228 229.444 261.436V262.211C229.471 262.631 229.358 263.047 229.13 263.368C228.902 263.689 228.578 263.888 228.229 263.921L221.862 264.535C221.512 264.567 221.166 264.432 220.9 264.158C220.634 263.884 220.468 263.494 220.44 263.073V262.298C220.413 261.878 220.526 261.462 220.754 261.141C220.982 260.82 221.306 260.621 221.655 260.588H221.923L220.112 233.453V233.292H219.833C219.66 233.308 219.487 233.283 219.323 233.218C219.158 233.153 219.006 233.05 218.875 232.914C218.744 232.778 218.637 232.612 218.559 232.426C218.482 232.24 218.436 232.038 218.423 231.83Z" fill="#06031E"/>
<path d="M215.483 249.667C214.851 244.067 218.63 239.433 219.444 234.93C219.59 234.184 220.538 234.14 220.939 234.725C221.716 235.851 221.145 239.389 220.769 240.368C220.222 241.728 225.799 247.269 218.739 252.401C217.446 251.915 216.308 250.96 215.483 249.667Z" fill="#FF8B7B"/>
<path d="M157.987 285.105L155.714 281.26C155.292 280.548 154.734 279.966 154.087 279.565C153.441 279.163 152.724 278.952 151.996 278.95H145.095C143.734 278.948 142.393 279.338 141.183 280.089C139.974 280.839 138.932 281.928 138.145 283.263L137.161 284.945C140.575 291.626 148.363 295.837 148.363 295.837L150.465 297.299C150.89 297.623 151.363 297.842 151.858 297.944C152.354 298.046 152.861 298.028 153.35 297.892C153.84 297.756 154.302 297.504 154.71 297.151C155.118 296.798 155.463 296.352 155.727 295.837L158.254 290.851C158.676 289.965 158.876 288.95 158.828 287.931C158.781 286.911 158.488 285.929 157.987 285.105Z" fill="#FF8B7B"/>
<path d="M116.504 208.073C116.043 209.301 115.715 210.178 115.362 211.201C115.01 212.225 114.706 213.175 114.39 214.125C113.758 216.099 113.175 218.087 112.689 220.076C111.649 224.073 110.785 228.133 110.101 232.24C109.749 234.286 109.457 236.377 109.178 238.453C108.898 240.529 108.716 242.649 108.595 244.784C108.27 249.07 108.189 253.378 108.351 257.678V258.38C108.363 258.874 108.42 259.364 108.522 259.842C109.143 262.72 110.229 265.422 111.717 267.795C112.876 269.64 114.183 271.344 115.618 272.883C116.88 274.263 118.22 275.538 119.627 276.699C120.976 277.825 122.312 278.877 123.685 279.813C126.355 281.662 129.119 283.308 131.96 284.74C134.764 286.178 137.641 287.399 140.575 288.395C141.621 288.756 142.739 288.665 143.736 288.139C144.733 287.612 145.545 286.683 146.033 285.512C146.52 284.341 146.652 283.001 146.405 281.726C146.158 280.45 145.549 279.318 144.682 278.526L144.475 278.351C142.373 276.392 140.089 274.36 137.975 272.328C135.86 270.295 133.746 268.234 131.899 266.114C130.073 264.19 128.386 262.082 126.857 259.813C126.26 258.931 125.743 257.975 125.314 256.962C124.986 256.143 124.901 255.5 125.01 255.573L125.192 257.708C125.435 254.301 125.727 250.909 126.249 247.474C126.772 244.038 127.367 240.617 128.108 237.24C128.849 233.862 129.664 230.412 130.599 227.006C131.061 225.31 131.559 223.643 132.045 221.991L132.798 219.535L133.503 217.313L133.685 216.742C134.517 214.036 134.449 211.047 133.494 208.4C132.54 205.753 130.773 203.651 128.562 202.533C126.351 201.415 123.867 201.367 121.627 202.399C119.388 203.431 117.566 205.464 116.541 208.073H116.504Z" fill="#FF8B7B"/>
<path d="M131.571 191.844C123.005 193.438 119.579 196.567 112.58 217.283C115.751 225.003 130.624 232.4 130.624 232.4C130.624 232.4 140.478 205.514 131.571 191.844Z" fill="#3A383C"/>
<path d="M139.542 189.885C144.657 190.558 150.769 209.652 149.263 228.716C147.756 247.781 132.106 259.199 129.688 255.661C129.347 254.357 129.203 252.99 129.263 251.626C131.146 250.822 138.315 244.579 139.348 231.465C140.381 218.351 129.02 193.745 129.688 191.844C130.356 189.944 136.48 189.432 139.542 189.885Z" fill="#9085DE"/>
<path d="M164.694 190.646C170.55 190.953 174.195 191.815 175.52 193.847C176.844 195.88 191.073 215.573 187.452 244.667C187.099 247.474 186.079 255.003 185.228 255.295C184.013 255.69 186.067 238.512 178.181 218.102C170.295 197.692 162.98 191.611 164.694 190.646Z" fill="#9085DE"/>
<path d="M161.352 116.771C150.259 120.119 135.836 130.777 127.331 140.718C125.739 135.426 124.524 122.18 135.301 114.549C139.29 111.591 143.95 110.215 148.624 110.614C153.298 111.012 157.75 113.166 161.352 116.771Z" fill="#9085DE"/>
<path d="M135.703 132.326C146.298 131.654 148.193 126.654 152.118 122.385C154.61 119.95 157.572 118.311 160.731 117.621C163.889 116.931 167.142 117.212 170.186 118.437C169.748 115.075 153.612 110.674 135.703 132.326Z" fill="#9085DE"/>
<rect width="22" height="22" rx="11" transform="matrix(-1 0 0 1 102 32)" fill="#605D62"/>
<path d="M85.478 43.4023C85.2558 43.1801 85.2558 42.8199 85.478 42.5977L89.0983 38.9775C89.3204 38.7553 89.6806 38.7553 89.9028 38.9775C90.1249 39.1997 90.1249 39.5598 89.9028 39.782L86.6848 43L89.9028 46.218C90.1249 46.4402 90.1249 46.8003 89.9028 47.0225C89.6806 47.2447 89.3204 47.2447 89.0983 47.0225L85.478 43.4023ZM96.1199 43.5689H85.8802V42.4311H96.1199V43.5689Z" fill="white"/>
</svg>
