<svg width="17" height="18" viewBox="0 0 17 18" fill="none" xmlns="http://www.w3.org/2000/svg">
<g clip-path="url(#clip0_560_435)">
<path d="M13.0959 6.31522C12.9337 6.12571 12.7307 5.97329 12.5012 5.8688C12.2717 5.7643 12.0214 5.71028 11.768 5.71058H2.44586L2.42164 5.51353C2.37208 5.10394 2.1699 4.72629 1.85341 4.45218C1.53693 4.17807 1.12815 4.02656 0.704582 4.02637H0.576581C0.423662 4.02637 0.277007 4.08552 0.168877 4.1908C0.0607467 4.29608 0 4.43888 0 4.58777C0 4.73667 0.0607467 4.87946 0.168877 4.98475C0.277007 5.09003 0.423662 5.14918 0.576581 5.14918H0.704582C0.845806 5.1492 0.982112 5.19968 1.08765 5.29105C1.19318 5.38243 1.2606 5.50834 1.27713 5.6449L2.0705 12.2133C2.15287 12.8965 2.48995 13.5264 3.01777 13.9835C3.54559 14.4406 4.22741 14.6931 4.9338 14.6931H10.955C11.108 14.6931 11.2546 14.6339 11.3627 14.5286C11.4709 14.4234 11.5316 14.2806 11.5316 14.1317C11.5316 13.9828 11.4709 13.84 11.3627 13.7347C11.2546 13.6294 11.108 13.5703 10.955 13.5703H4.9338C4.57693 13.5693 4.2291 13.4609 3.93801 13.2598C3.64691 13.0588 3.4268 12.7751 3.30784 12.4475H10.1807C10.8566 12.4475 11.5111 12.2163 12.0297 11.7942C12.5483 11.3722 12.8981 10.7861 13.018 10.1384L13.4707 7.69403C13.5158 7.45151 13.5057 7.20228 13.4409 6.964C13.3762 6.72572 13.2584 6.50423 13.0959 6.31522ZM12.3388 7.49473L11.8856 9.93909C11.8136 10.3281 11.6034 10.6801 11.2917 10.9335C10.98 11.1868 10.5867 11.3252 10.1807 11.3246H3.12449L2.58193 6.8334H11.768C11.8527 6.8329 11.9365 6.85059 12.0134 6.88519C12.0903 6.91979 12.1584 6.97046 12.2129 7.0336C12.2674 7.09673 12.3069 7.17078 12.3287 7.25049C12.3504 7.33019 12.3539 7.41358 12.3388 7.49473Z" fill="#79767A"/>
<path d="M4.03622 17.5005C4.67309 17.5005 5.18938 16.9978 5.18938 16.3777C5.18938 15.7576 4.67309 15.2549 4.03622 15.2549C3.39934 15.2549 2.88306 15.7576 2.88306 16.3777C2.88306 16.9978 3.39934 17.5005 4.03622 17.5005Z" fill="#79767A"/>
<path d="M9.80184 17.5005C10.4387 17.5005 10.955 16.9978 10.955 16.3777C10.955 15.7576 10.4387 15.2549 9.80184 15.2549C9.16497 15.2549 8.64868 15.7576 8.64868 16.3777C8.64868 16.9978 9.16497 17.5005 9.80184 17.5005Z" fill="#79767A"/>
</g>
<g clip-path="url(#clip1_560_435)">
<rect x="8.57056" y="1.5" width="7.42938" height="6.76448" rx="3.38224" fill="#FD632F"/>
<path d="M12.3984 6.93959C12.1014 6.93959 11.8373 6.88871 11.6063 6.78695C11.3767 6.68518 11.1951 6.54354 11.0617 6.36201C10.9283 6.18048 10.8575 5.97076 10.8493 5.73286H11.6249C11.6318 5.847 11.6696 5.9467 11.7383 6.03196C11.8071 6.11585 11.8985 6.18117 12.0127 6.22793C12.1268 6.27468 12.2547 6.29806 12.3964 6.29806C12.5476 6.29806 12.6817 6.27193 12.7986 6.21968C12.9155 6.16604 13.007 6.09178 13.073 5.99689C13.139 5.902 13.1713 5.79268 13.1699 5.66891C13.1713 5.54101 13.1383 5.42825 13.0709 5.33061C13.0035 5.23297 12.9059 5.15665 12.778 5.10164C12.6515 5.04663 12.4988 5.01913 12.32 5.01913H11.9467V4.42916H12.32C12.4672 4.42916 12.5958 4.40372 12.7058 4.35284C12.8172 4.30196 12.9045 4.23045 12.9678 4.13831C13.031 4.0448 13.062 3.93684 13.0606 3.81445C13.062 3.69481 13.0351 3.59098 12.9801 3.50297C12.9265 3.41358 12.8502 3.34413 12.7512 3.29462C12.6535 3.24512 12.5387 3.22036 12.4067 3.22036C12.2774 3.22036 12.1578 3.24374 12.0477 3.2905C11.9377 3.33725 11.849 3.40395 11.7816 3.49059C11.7143 3.57585 11.6785 3.67762 11.6744 3.79588H10.938C10.9435 3.55935 11.0115 3.35169 11.1422 3.17292C11.2742 2.99277 11.4502 2.8525 11.6703 2.75211C11.8903 2.65034 12.1371 2.59946 12.4108 2.59946C12.6927 2.59946 12.9375 2.6524 13.1452 2.75829C13.3542 2.86281 13.5158 3.00377 13.6299 3.18117C13.7441 3.35857 13.8011 3.55454 13.8011 3.76907C13.8025 4.00698 13.7324 4.20638 13.5907 4.36728C13.4505 4.52818 13.2662 4.63338 13.0379 4.68289V4.71589C13.3349 4.75715 13.5625 4.86717 13.7207 5.04594C13.8802 5.22334 13.9593 5.44406 13.9579 5.7081C13.9579 5.94464 13.8905 6.15642 13.7557 6.34344C13.6224 6.5291 13.4381 6.67487 13.2029 6.78076C12.9691 6.88665 12.701 6.93959 12.3984 6.93959Z" fill="#EBE5FF"/>
</g>
<rect x="8.08649" y="1.01593" width="8.39753" height="7.73262" rx="3.86631" stroke="white" stroke-width="0.968142"/>
<defs>
<clipPath id="clip0_560_435">
<rect width="13.8379" height="13.4737" fill="white" transform="translate(0 4.02637)"/>
</clipPath>
<clipPath id="clip1_560_435">
<rect x="8.57056" y="1.5" width="7.42938" height="6.76448" rx="3.38224" fill="white"/>
</clipPath>
</defs>
</svg>
