<svg width="388" height="177" viewBox="0 0 388 177" fill="none" xmlns="http://www.w3.org/2000/svg">
<g opacity="0.1">
<rect width="20.6444" height="20.6444" rx="10.3222" transform="matrix(1 0 0 -1 183.874 174.902)" fill="#0195F7"/>
</g>
<g opacity="0.2">
<rect width="12.3866" height="12.3866" rx="6.19332" transform="matrix(1 0 0 -1 188.003 170.773)" fill="#0195F7"/>
</g>
<rect width="4.12888" height="4.12888" rx="2.06444" transform="matrix(1 0 0 -1 192.132 166.645)" fill="#0195F7"/>
<g opacity="0.1">
<rect width="20.6444" height="20.6444" rx="10.3222" transform="matrix(1 0 0 -1 235.482 122.776)" fill="#0195F7"/>
</g>
<g opacity="0.2">
<rect width="12.3866" height="12.3866" rx="6.19332" transform="matrix(1 0 0 -1 239.611 118.647)" fill="#0195F7"/>
</g>
<rect width="4.12888" height="4.12888" rx="2.06444" transform="matrix(1 0 0 -1 243.74 114.518)" fill="#0195F7"/>
<g opacity="0.1">
<rect width="20.6444" height="20.6444" rx="10.3222" transform="matrix(1 0 0 -1 268.513 135.678)" fill="#0195F7"/>
</g>
<g opacity="0.2">
<rect width="12.3866" height="12.3866" rx="6.19332" transform="matrix(1 0 0 -1 272.642 131.549)" fill="#0195F7"/>
</g>
<rect width="4.12888" height="4.12888" rx="2.06444" transform="matrix(1 0 0 -1 276.771 127.42)" fill="#0195F7"/>
<g opacity="0.1">
<rect width="20.6444" height="20.6444" rx="10.3222" transform="matrix(1 0 0 -1 305.672 166.645)" fill="#0195F7"/>
</g>
<g opacity="0.2">
<rect width="12.3866" height="12.3866" rx="6.19332" transform="matrix(1 0 0 -1 309.801 162.516)" fill="#0195F7"/>
</g>
<rect width="4.12888" height="4.12888" rx="2.06444" transform="matrix(1 0 0 -1 313.93 158.387)" fill="#0195F7"/>
<g opacity="0.1">
<rect width="20.6444" height="20.6444" rx="10.3222" transform="matrix(1 0 0 -1 189.033 47.424)" fill="#0195F7"/>
</g>
<g opacity="0.2">
<rect width="12.3866" height="12.3866" rx="6.19332" transform="matrix(1 0 0 -1 193.162 43.2951)" fill="#0195F7"/>
</g>
<rect width="4.12888" height="4.12888" rx="2.06444" transform="matrix(1 0 0 -1 197.291 39.1662)" fill="#0195F7"/>
<g opacity="0.1">
<rect width="20.6444" height="20.6444" rx="10.3222" transform="matrix(1 0 0 -1 0.135864 176.451)" fill="#0195F7"/>
</g>
<g opacity="0.2">
<rect width="12.3866" height="12.3866" rx="6.19332" transform="matrix(1 0 0 -1 4.26465 172.323)" fill="#0195F7"/>
</g>
<rect width="4.12888" height="4.12888" rx="2.06444" transform="matrix(1 0 0 -1 8.39355 168.194)" fill="#0195F7"/>
<g opacity="0.1">
<rect width="20.6444" height="20.6444" rx="10.3222" transform="matrix(1 0 0 -1 68.7791 66.0039)" fill="#0195F7"/>
</g>
<g opacity="0.2">
<rect width="12.3866" height="12.3866" rx="6.19332" transform="matrix(1 0 0 -1 72.908 61.875)" fill="#0195F7"/>
</g>
<rect width="4.12888" height="4.12888" rx="2.06444" transform="matrix(1 0 0 -1 77.0369 57.7462)" fill="#0195F7"/>
<g opacity="0.1">
<rect width="20.6444" height="20.6444" rx="10.3222" transform="matrix(1 0 0 -1 366.575 21.6185)" fill="#0195F7"/>
</g>
<g opacity="0.2">
<rect width="12.3866" height="12.3866" rx="6.19332" transform="matrix(1 0 0 -1 370.704 17.4896)" fill="#0195F7"/>
</g>
<rect width="4.12888" height="4.12888" rx="2.06444" transform="matrix(1 0 0 -1 374.833 13.3607)" fill="#0195F7"/>
</svg>
