<svg width="23" height="23" viewBox="0 0 23 23" fill="none" xmlns="http://www.w3.org/2000/svg">
<path d="M0 11.3699C0 5.09047 5.09047 0 11.3699 0C17.6493 0 22.7398 5.09047 22.7398 11.3699C22.7398 17.6493 17.6493 22.7398 11.3699 22.7398C5.09047 22.7398 0 17.6493 0 11.3699Z" fill="#3B82F6"/>
<path d="M13.8136 10.233H12.9326H12.6179V9.86624V8.72925V8.36248H12.9326H13.5934C13.7664 8.36248 13.908 8.21577 13.908 7.99571V6.05183C13.908 5.85011 13.7822 5.68506 13.5934 5.68506H12.4449C11.202 5.68506 10.3366 6.71202 10.3366 8.23411V9.82956V10.1963H10.022H8.95214C8.73187 10.1963 8.52734 10.3981 8.52734 10.6915V12.0118C8.52734 12.2686 8.70041 12.507 8.95214 12.507H9.99052H10.3052V12.8738V16.5598C10.3052 16.8165 10.4782 17.0549 10.73 17.0549H12.2089C12.3033 17.0549 12.3819 16.9999 12.4449 16.9266C12.5078 16.8532 12.555 16.7248 12.555 16.6148V12.8921V12.5253H12.8854H13.5934C13.7979 12.5253 13.9552 12.3786 13.9867 12.1586V12.1402V12.1219L14.207 10.8565C14.2227 10.7282 14.207 10.5814 14.1126 10.4347C14.0811 10.343 13.9395 10.2513 13.8136 10.233Z" fill="white"/>
</svg>
