<svg width="23" height="23" viewBox="0 0 23 23" fill="none" xmlns="http://www.w3.org/2000/svg">
<path d="M17.6094 0H5.39062C2.41347 0 0 2.41347 0 5.39062V17.6094C0 20.5865 2.41347 23 5.39062 23H17.6094C20.5865 23 23 20.5865 23 17.6094V5.39062C23 2.41347 20.5865 0 17.6094 0Z" fill="white"/>
<path d="M17.6094 0H5.39062C2.41347 0 0 2.41347 0 5.39062V17.6094C0 20.5865 2.41347 23 5.39062 23H17.6094C20.5865 23 23 20.5865 23 17.6094V5.39062C23 2.41347 20.5865 0 17.6094 0Z" fill="#0A66C2"/>
<path d="M16.5951 19.5576H19.2248C19.3201 19.5576 19.4115 19.5198 19.4789 19.4524C19.5463 19.385 19.5842 19.2936 19.5842 19.1984L19.5856 13.6422C19.5856 10.7382 18.9598 8.50605 15.5661 8.50605C14.2761 8.45807 13.0595 9.12309 12.403 10.2336C12.3998 10.239 12.3949 10.2432 12.3891 10.2455C12.3833 10.2479 12.3769 10.2483 12.3708 10.2466C12.3647 10.245 12.3594 10.2414 12.3555 10.2364C12.3517 10.2315 12.3496 10.2254 12.3496 10.2191V9.13352C12.3496 9.0382 12.3117 8.94679 12.2443 8.8794C12.1769 8.812 12.0855 8.77414 11.9902 8.77414H9.49459C9.39928 8.77414 9.30787 8.812 9.24047 8.8794C9.17308 8.94679 9.13522 9.0382 9.13522 9.13352V19.1978C9.13522 19.2931 9.17308 19.3845 9.24047 19.4519C9.30787 19.5193 9.39928 19.5572 9.49459 19.5572H12.1241C12.2194 19.5572 12.3109 19.5193 12.3783 19.4519C12.4457 19.3845 12.4835 19.2931 12.4835 19.1978V14.2229C12.4835 12.8162 12.7503 11.4539 14.4943 11.4539C16.2135 11.4539 16.2357 13.0636 16.2357 14.314V19.1983C16.2357 19.2936 16.2736 19.385 16.341 19.4524C16.4084 19.5198 16.4998 19.5576 16.5951 19.5576ZM3.4137 5.35711C3.4137 6.42311 4.2912 7.30016 5.3572 7.30016C6.42292 7.30007 7.29989 6.42248 7.29989 5.35675C7.29971 4.29103 6.42265 3.41406 5.35684 3.41406C4.29075 3.41406 3.4137 4.29121 3.4137 5.35711ZM4.03892 19.5576H6.67197C6.76728 19.5576 6.85869 19.5198 6.92609 19.4524C6.99348 19.385 7.03134 19.2936 7.03134 19.1983V9.13352C7.03134 9.0382 6.99348 8.94679 6.92609 8.8794C6.85869 8.812 6.76728 8.77414 6.67197 8.77414H4.03892C3.94361 8.77414 3.8522 8.812 3.7848 8.8794C3.71741 8.94679 3.67954 9.0382 3.67954 9.13352V19.1983C3.67954 19.2936 3.71741 19.385 3.7848 19.4524C3.8522 19.5198 3.94361 19.5576 4.03892 19.5576Z" fill="white"/>
</svg>
