<svg width="308" height="731" viewBox="0 0 308 731" fill="none" xmlns="http://www.w3.org/2000/svg">
<g clip-path="url(#clip0_38_68190)">
<rect width="308" height="731" transform="matrix(-1 0 0 1 308 0)" fill="#F4EFFA"/>
<path d="M0 559.069H308V559.434H0V559.069Z" fill="#EBEBEB"/>
<path d="M30.8618 582.592H51.2637V582.957H30.8618V582.592Z" fill="#EBEBEB"/>
<path d="M103.968 586.569H109.321V586.934H103.968V586.569Z" fill="#EBEBEB"/>
<path d="M51.8796 569.025H63.7007V569.39H51.8796V569.025Z" fill="#EBEBEB"/>
<path d="M249.08 571.481H275.685V571.846H249.08V571.481Z" fill="#EBEBEB"/>
<path d="M239.692 571.481H243.591V571.846H239.692V571.481Z" fill="#EBEBEB"/>
<path d="M169.308 577.651H227.015V578.016H169.308V577.651Z" fill="#EBEBEB"/>
<path d="M162.008 493.864H280.951C281.883 493.86 282.776 492.979 283.434 491.413C284.093 489.848 284.462 487.727 284.462 485.516V88.6849C284.454 86.4861 284.081 84.3837 283.424 82.8343C282.766 81.2849 281.878 80.4138 280.951 80.41H162.008C161.075 80.41 160.18 81.2895 159.521 82.8551C158.861 84.4206 158.49 86.544 158.49 88.758V485.516C158.49 487.73 158.861 489.853 159.521 491.419C160.18 492.984 161.075 493.864 162.008 493.864ZM280.951 80.7024C281.842 80.7063 282.696 81.549 283.325 83.0456C283.955 84.5422 284.308 86.5704 284.308 88.6849V485.516C284.308 487.63 283.955 489.658 283.325 491.155C282.696 492.651 281.842 493.494 280.951 493.498H162.008C161.116 493.494 160.262 492.652 159.631 491.156C159.001 489.66 158.646 487.631 158.644 485.516V88.6849C158.646 86.569 159.001 84.5409 159.631 83.0447C160.262 81.5485 161.116 80.7063 162.008 80.7024H280.951Z" fill="#EBEBEB"/>
<path d="M28.7611 493.864H147.711C148.643 493.86 149.537 492.979 150.196 491.414C150.855 489.85 151.226 487.728 151.228 485.516V88.6849C151.218 86.4848 150.844 84.3824 150.185 82.8334C149.527 81.2844 148.638 80.4137 147.711 80.41H28.7611C27.8357 80.4176 26.9488 81.2905 26.2927 82.8394C25.6366 84.3884 25.2641 86.4886 25.256 88.6849V485.516C25.256 487.725 25.6249 489.843 26.2819 491.408C26.9389 492.973 27.8303 493.856 28.7611 493.864ZM147.711 80.7024C148.602 80.7063 149.457 81.5485 150.087 83.0447C150.718 84.5409 151.072 86.569 151.074 88.6849V485.516C151.072 487.631 150.718 489.66 150.087 491.156C149.457 492.652 148.602 493.494 147.711 493.498H28.7611C27.8696 493.494 27.015 492.652 26.3846 491.156C25.7542 489.66 25.3993 487.631 25.3977 485.516V88.6849C25.3993 86.569 25.7542 84.5409 26.3846 83.0447C27.015 81.5485 27.8696 80.7063 28.7611 80.7024H147.711Z" fill="#EBEBEB"/>
<path d="M277.939 559.069H149.306L234.024 435.369L277.939 559.069Z" fill="#F0F0F0"/>
<path d="M219.974 455.881L234.025 435.369L243.973 463.396L236.396 458.132L231.973 469.741L228.425 458.132L224.575 462.811L223.177 458.132L217.756 463.644L219.974 455.881Z" fill="#FAFAFA"/>
<path d="M253.213 559.069H91.7655L166.492 357.181L253.213 559.069Z" fill="#E6E6E6"/>
<path d="M188.212 407.752L166.492 357.181L147.778 407.752L156.636 396.918L160.08 414.302L167.077 402.006L171.217 412.489L174.278 405.427L180.488 416.933L181.8 401.962L188.212 407.752Z" fill="#F0F0F0"/>
<path d="M153.901 411.802L147.427 431.816V416.933L153.901 411.802Z" fill="#F0F0F0"/>
<path d="M187.245 430.661L201.968 458.132L197.496 433.936L187.245 430.661Z" fill="#F0F0F0"/>
<path d="M192.962 559.069H45.3683L113.837 407.752L192.962 559.069Z" fill="#F5F5F5"/>
<path d="M131.793 442.094L113.837 407.752L94.6297 450.194L105.434 438.966L106.66 455.881L113.214 443.41L122.233 452.284L122.405 440.077L127.832 445.632L127.653 439.521L131.793 442.094Z" fill="#FAFAFA"/>
<path d="M102.773 448.41L99.0774 467.445L96.367 458.834L102.773 448.41Z" fill="#FAFAFA"/>
<path d="M146.479 485.282L135.532 475.486L141.421 473.147L146.479 485.282Z" fill="#FAFAFA"/>
<path d="M119.165 559.069H34.1509L69.7495 455.881L119.165 559.069Z" fill="#F5F5F5"/>
<path d="M79.0942 475.413L69.7495 455.881L58.2919 489.083L69.7495 474.039L70.7967 483.41L73.6858 476.671L79.0942 475.413Z" fill="#FAFAFA"/>
<path d="M116.264 307.912C98.6072 307.912 84.2936 273.94 84.2936 232.034C84.2936 190.128 98.6072 156.156 116.264 156.156C133.921 156.156 148.234 190.128 148.234 232.034C148.234 273.94 133.921 307.912 116.264 307.912Z" fill="#FAFAFA"/>
<path d="M237.634 311.114C231.678 295.865 223.516 285.09 217.159 285.09C213.173 285.09 210.629 289.359 209.717 296.318C206.951 292.356 204.081 289.973 201.617 289.973C197.305 289.973 195.457 297.283 196.56 307.678C194.299 305.43 191.897 304.096 189.451 303.73C185.04 303.263 182.385 307.488 181.868 314.345C180.92 313.223 179.888 312.553 178.831 312.371C176.293 312.108 175.443 316.362 176.934 321.874C177.026 322.225 177.125 322.561 177.223 322.897H247.447C246.616 317.415 240.782 311.406 237.634 311.114Z" fill="#F5F5F5"/>
<path d="M73.5198 311.406C70.754 304.33 66.9717 299.301 64.0211 299.301C62.1731 299.301 60.9904 301.289 60.5715 304.505C59.4487 302.765 58.1528 301.757 56.8139 301.581C54.7996 301.581 53.9372 304.988 54.4608 309.798C53.4121 308.76 52.2988 308.137 51.1652 307.956C49.1201 307.751 47.8881 309.71 47.6478 312.883C47.2066 312.367 46.7276 312.06 46.2372 311.976C45.0606 311.845 44.6664 313.818 45.3563 316.362L45.4918 316.845H78.0659C77.684 314.33 74.9798 311.596 73.5198 311.406Z" fill="#FAFAFA"/>
<path d="M105.274 175.031C98.5906 157.925 89.4369 145.791 82.3036 145.791C77.8314 145.791 74.9794 150.586 73.963 158.378C70.8522 153.992 67.6366 151.273 64.8708 151.273C60.0106 151.273 57.9285 159.504 59.1974 171.127C56.6607 168.631 53.9672 167.148 51.2264 166.741C46.2984 166.215 43.2923 170.952 42.7133 178.656C41.6511 177.401 40.4963 176.646 39.313 176.434C36.4609 176.142 35.5122 180.908 37.1816 187.107C37.2863 187.487 37.3972 187.867 37.5081 188.233H116.264C115.352 182.092 108.81 175.338 105.274 175.031Z" fill="#F0F0F0"/>
<path d="M263.648 194.022C263.468 193.97 263.287 193.945 263.106 193.949C260.605 189.212 258.006 186.186 256.077 186.186C254.685 186.186 253.866 187.765 253.613 190.44C248.957 181.259 244.01 175.294 240.4 175.294C237.487 175.294 235.977 179.168 235.885 185.528C233.544 181.931 231.259 179.768 229.454 179.768C226.288 179.768 225.53 186.434 227.206 195.85C225.474 193.872 223.606 192.653 221.692 192.253C218.434 191.829 216.838 195.659 217.023 201.902C216.292 200.915 215.482 200.303 214.645 200.104C212.865 199.885 212.526 203.32 213.795 207.926H274.12C271.619 200.923 267.061 194.797 263.648 194.022Z" fill="#F5F5F5"/>
<path d="M154 625.093C88.037 625.093 34.5635 617.683 34.5635 608.543C34.5635 599.403 88.037 591.993 154 591.993C219.963 591.993 273.436 599.403 273.436 608.543C273.436 617.683 219.963 625.093 154 625.093Z" fill="#F5F5F5"/>
<rect width="22" height="22" rx="11" transform="matrix(-1 0 0 1 102 32)" fill="#605D62"/>
<path d="M85.4778 43.4023C85.2556 43.1801 85.2556 42.8199 85.4778 42.5977L89.098 38.9775C89.3202 38.7553 89.6804 38.7553 89.9025 38.9775C90.1247 39.1997 90.1247 39.5598 89.9025 39.782L86.6845 43L89.9025 46.218C90.1247 46.4402 90.1247 46.8003 89.9025 47.0225C89.6804 47.2447 89.3202 47.2447 89.098 47.0225L85.4778 43.4023ZM96.1196 43.5689H85.88V42.4311H96.1196V43.5689Z" fill="white"/>
<path d="M63.4638 595.417L60.3718 589.052L86.7114 576.256L114.337 583.825L140.342 573.219L165.626 580.129L182.271 575.963L204.346 581.299L221.933 571.399L266.312 560.096L268.059 566.953L224.587 578.025L205.39 588.832L182.3 583.251L165.547 587.443L140.792 580.678L114.785 591.285L87.409 583.783L63.4638 595.417Z" fill="#407BFF"/>
<path d="M262.53 554.743L267.557 573.072C267.823 572.853 274.945 560.573 274.945 560.573L262.53 554.743Z" fill="#407BFF"/>
<path opacity="0.3" d="M262.404 561.091L264.257 567.921L266.019 567.464L264.133 560.631L262.404 561.091Z" fill="black"/>
<path d="M254.973 53.8517C253.673 52.87 251.777 52.7587 250.372 53.5819C248.507 49.8122 243.308 48.1485 239.601 50.1347C238.633 46.0727 234.631 42.9504 230.456 43.0006C226.281 43.0509 222.355 46.2684 221.485 50.3527C221.347 51.0018 221.256 51.7128 220.792 52.1868C220.037 52.9573 218.778 52.6987 217.703 52.6149C214.322 52.351 210.92 54.7251 210 57.9896L256.566 57.8202C256.974 56.2435 256.272 54.8334 254.973 53.8517Z" fill="#F5F5F5"/>
<path d="M297.681 329.85C300.422 327.213 303.387 324.818 306.543 322.694C303.802 325.332 300.837 327.726 297.681 329.85Z" fill="#263238"/>
<path d="M279.67 343.748C281.115 342.512 282.626 341.357 284.197 340.288C285.671 339.082 287.225 337.978 288.848 336.983C287.536 338.362 286.08 339.599 284.507 340.672C283.024 341.888 281.4 342.92 279.67 343.748Z" fill="#263238"/>
<path d="M258.23 349.227C258.26 349.068 260.744 349.636 263.867 349.469C266.99 349.302 269.425 348.556 269.469 348.716C268.984 349.003 268.453 349.205 267.9 349.312C266.59 349.673 265.245 349.892 263.888 349.964C261.971 350.145 260.037 349.893 258.23 349.227Z" fill="#263238"/>
<path d="M239.879 336.398C239.975 336.321 241.693 338.191 243.946 340.361C246.198 342.532 248.197 344.115 248.087 344.252C246.426 343.304 244.915 342.115 243.603 340.723C242.166 339.462 240.912 338.007 239.879 336.398Z" fill="#263238"/>
<path d="M220.414 325.483C222.324 325.6 224.205 326.017 225.986 326.718C227.82 327.275 229.549 328.135 231.102 329.26C231.034 329.388 228.777 328.21 225.822 327.179C222.867 326.149 220.385 325.628 220.414 325.483Z" fill="#263238"/>
<path d="M198.026 327.493C199.707 326.585 201.52 325.944 203.399 325.594C205.245 325.09 207.158 324.871 209.07 324.943C209.089 325.087 206.561 325.371 203.516 326.073C200.472 326.775 198.072 327.626 198.026 327.493Z" fill="#263238"/>
<path d="M179.96 340.959C180.964 339.329 182.213 337.864 183.663 336.615C184.658 335.704 185.709 334.856 186.809 334.074C187.23 333.707 187.699 333.398 188.202 333.156C187.88 333.615 187.483 334.018 187.029 334.347C186.224 334.997 185.166 335.938 184.032 337.012C181.723 339.108 180.071 341.052 179.96 340.959Z" fill="#263238"/>
<path d="M171.262 361.659C171.216 359.743 171.481 357.831 172.047 355.999C172.448 354.124 173.145 352.325 174.113 350.67C174.248 350.732 173.301 353.095 172.52 356.117C171.739 359.139 171.408 361.675 171.262 361.659Z" fill="#263238"/>
<path d="M176.106 383.478C173.807 380.4 172.342 376.779 171.853 372.968C171.998 372.936 172.593 375.396 173.739 378.326C174.885 381.256 176.236 383.398 176.106 383.478Z" fill="#263238"/>
<path d="M189.989 401.501C188.633 400.166 187.394 398.717 186.285 397.171C185.044 395.725 183.934 394.173 182.966 392.531C184.321 393.867 185.56 395.315 186.669 396.861C187.91 398.307 189.021 399.86 189.989 401.501Z" fill="#263238"/>
<path d="M204.032 419.406C202.671 418.075 201.43 416.629 200.321 415.082C199.084 413.633 197.974 412.081 197.001 410.442C198.362 411.773 199.604 413.219 200.713 414.766C201.949 416.215 203.06 417.768 204.032 419.406Z" fill="#263238"/>
<path d="M218.069 437.316C216.712 435.982 215.473 434.533 214.365 432.987C213.124 431.541 212.013 429.988 211.045 428.347C212.401 429.682 213.64 431.13 214.749 432.677C215.991 434.122 217.102 435.675 218.069 437.316Z" fill="#263238"/>
<path d="M226.664 457.949C226.515 457.96 226.306 455.42 225.604 452.375C224.902 449.33 223.965 446.976 224.1 446.916C225.059 448.576 225.729 450.386 226.081 452.27C226.59 454.118 226.787 456.037 226.664 457.949Z" fill="#263238"/>
<path d="M221.315 479.728C221.194 479.655 222.437 477.431 223.616 474.54C224.794 471.648 225.474 469.196 225.63 469.253C225.409 471.153 224.888 473.007 224.086 474.745C223.428 476.54 222.493 478.222 221.315 479.728Z" fill="#263238"/>
<path d="M205.502 495.864C206.83 494.501 208.261 493.243 209.784 492.102L211.505 490.712L212.908 489.579C213.314 489.191 213.773 488.865 214.273 488.611C213.959 489.078 213.576 489.495 213.136 489.846L211.809 491.089C211.285 491.512 210.701 491.983 210.088 492.478C208.67 493.75 207.135 494.884 205.502 495.864Z" fill="#263238"/>
<path d="M184.672 504.291C184.661 504.141 187.184 503.836 190.209 503.064C193.234 502.293 195.617 501.406 195.677 501.541C194.01 502.485 192.204 503.161 190.327 503.543C188.492 504.082 186.584 504.334 184.672 504.291Z" fill="#263238"/>
<path d="M162.748 499.728C162.828 499.602 165.052 500.844 167.973 501.938C170.894 503.033 173.372 503.593 173.325 503.717C171.415 503.577 169.541 503.124 167.778 502.377C165.966 501.778 164.266 500.883 162.748 499.728Z" fill="#263238"/>
<path d="M146.938 483.579C148.314 484.894 149.576 486.325 150.708 487.855C151.965 489.285 153.098 490.819 154.094 492.441C152.714 491.13 151.452 489.699 150.324 488.165C149.062 486.74 147.929 485.205 146.938 483.579Z" fill="#263238"/>
<path d="M132.643 465.877C134.02 467.193 135.281 468.623 136.413 470.153C137.671 471.583 138.804 473.117 139.8 474.739C138.419 473.428 137.158 471.997 136.029 470.463C134.768 469.038 133.635 467.503 132.643 465.877Z" fill="#263238"/>
<path d="M118.343 448.168C119.718 449.484 120.98 450.914 122.113 452.444C123.37 453.873 124.503 455.408 125.499 457.03C124.118 455.719 122.857 454.288 121.729 452.754C120.467 451.328 119.334 449.793 118.343 448.168Z" fill="#263238"/>
<path d="M104.048 430.466C105.425 431.781 106.686 433.212 107.818 434.742C109.075 436.172 110.208 437.706 111.204 439.328C109.824 438.016 108.563 436.585 107.434 435.052C106.172 433.626 105.039 432.091 104.048 430.466Z" fill="#263238"/>
<path d="M89.7475 412.757C90.2064 413.085 90.6168 413.477 90.967 413.919C91.648 414.687 92.5646 415.777 93.5546 417.003C94.812 418.432 95.9449 419.966 96.9407 421.589C95.5603 420.278 94.2987 418.847 93.1706 417.313C92.1806 416.087 91.2861 414.979 90.6937 414.14C90.3137 413.726 89.9951 413.261 89.7475 412.757Z" fill="#263238"/>
<path d="M70.0747 402.143C71.9897 402.223 73.879 402.613 75.6688 403.299C77.5074 403.842 79.2424 404.688 80.8021 405.803C80.7271 405.937 78.4625 404.764 75.5035 403.774C72.5444 402.784 70.0457 402.288 70.0747 402.143Z" fill="#263238"/>
<path d="M47.8123 405.003C51.1797 403.162 54.9228 402.113 58.7567 401.936C58.7751 402.08 56.2567 402.467 53.2571 403.315C50.2575 404.163 47.8723 405.138 47.8123 405.003Z" fill="#263238"/>
<path d="M29.7999 418.597C30.8355 416.987 32.1113 415.545 33.5829 414.322C34.7625 413.259 35.924 412.431 36.7289 411.781C37.1505 411.413 37.6242 411.108 38.1346 410.878C37.8011 411.327 37.4016 411.724 36.9496 412.054C36.1804 412.749 35.0368 413.599 33.9092 414.68C31.5826 416.815 29.8893 418.707 29.7999 418.597Z" fill="#263238"/>
<path d="M20.5435 439.089C20.7292 435.262 21.8062 431.53 23.6885 428.192C23.8237 428.254 22.8189 430.59 21.952 433.596C21.0851 436.602 20.7199 439.081 20.5435 439.089Z" fill="#263238"/>
<path d="M24.7397 461.042C23.576 459.517 22.6808 457.806 22.0927 455.981C21.3543 454.213 20.9245 452.332 20.8221 450.418C20.9672 450.387 21.4708 452.884 22.556 455.814C23.6411 458.744 24.8625 460.967 24.7397 461.042Z" fill="#263238"/>
<path d="M38.7195 478.973C37.3391 477.662 36.0775 476.231 34.9494 474.697C33.6876 473.272 32.5545 471.737 31.5633 470.111C32.9397 471.426 34.201 472.857 35.3334 474.387C36.5909 475.817 37.7237 477.351 38.7195 478.973Z" fill="#263238"/>
<path d="M53.0203 496.683C51.6399 495.371 50.3783 493.941 49.2502 492.407C47.9889 490.981 46.8558 489.446 45.8641 487.821C47.2399 489.136 48.5012 490.567 49.6342 492.097C50.8916 493.526 52.0245 495.06 53.0203 496.683Z" fill="#263238"/>
<path d="M66.8462 514.726C66.7354 514.816 65.4695 512.568 63.5192 510.093C62.2612 508.663 61.1307 507.127 60.1405 505.501C61.5165 506.816 62.7755 508.249 63.9032 509.782C65.162 511.248 66.1576 512.921 66.8462 514.726Z" fill="#263238"/>
<path d="M70.3477 536.801C70.2023 536.772 70.5718 534.253 70.6241 531.099C70.6764 527.946 70.3137 525.457 70.4648 525.432C71.3536 529.175 71.3134 533.077 70.3477 536.801Z" fill="#263238"/>
<path d="M60.5341 557.011C60.4447 556.9 62.0859 554.989 63.8338 552.394C65.5816 549.8 66.7767 547.578 66.888 547.61C66.271 549.424 65.3788 551.132 64.2427 552.674C63.2403 554.304 61.9889 555.768 60.5341 557.011Z" fill="#263238"/>
<path d="M43.3421 571.907C44.6424 570.515 46.0567 569.234 47.5704 568.078C48.9767 566.795 50.4956 565.642 52.1088 564.633C50.8086 566.025 49.3942 567.305 47.8805 568.462C46.474 569.744 44.9551 570.897 43.3421 571.907Z" fill="#263238"/>
<path d="M25.8248 586.43C27.1209 585.034 28.5356 583.753 30.0531 582.601C31.4628 581.323 32.9791 580.168 34.5855 579.148C33.2938 580.549 31.8809 581.833 30.3632 582.985C28.9496 584.259 27.4314 585.411 25.8248 586.43Z" fill="#263238"/>
<path d="M8.32552 600.976C9.61723 599.575 11.0302 598.291 12.5479 597.139C13.9581 595.862 15.4766 594.709 17.0862 593.694C15.7901 595.09 14.3754 596.371 12.858 597.523C11.4482 598.801 9.93188 599.956 8.32552 600.976Z" fill="#263238"/>
<path d="M34.5486 395.619C33.8959 394.807 33.0648 394.157 32.1198 393.719C31.1749 393.282 30.1416 393.068 29.1005 393.094C28.0594 393.121 27.0385 393.388 26.1173 393.874C25.196 394.359 24.3994 395.051 23.7893 395.895C23.1792 396.739 22.7721 397.713 22.5997 398.74C22.4274 399.767 22.4944 400.82 22.7955 401.817C23.0967 402.814 23.6238 403.728 24.336 404.488C25.0481 405.248 25.9261 405.833 26.9014 406.199C27.3825 406.371 27.8304 406.412 28.4032 406.547L34.7628 408.122C34.9457 408.167 35.1363 408.169 35.32 408.128C35.5037 408.087 35.6755 408.004 35.8219 407.885C35.9684 407.767 36.0856 407.617 36.1645 407.446C36.2433 407.275 36.2817 407.088 36.2767 406.9L36.0681 400.492C36.0688 399.955 36.0426 399.419 35.9896 398.884C35.8105 397.686 35.3128 396.559 34.5486 395.619ZM31.1598 402.15C30.7012 402.52 30.143 402.746 29.5559 402.799C28.9688 402.852 28.3792 402.73 27.8615 402.448C27.3438 402.166 26.9214 401.737 26.6476 401.215C26.3739 400.693 26.2611 400.101 26.3235 399.515C26.3859 398.929 26.6208 398.375 26.9983 397.922C27.3759 397.469 27.8792 397.139 28.4447 396.972C29.0102 396.805 29.6123 396.81 30.1751 396.986C30.7378 397.161 31.2359 397.5 31.6062 397.958C32.1029 398.573 32.3348 399.36 32.2511 400.146C32.1674 400.933 31.7749 401.653 31.1598 402.15Z" fill="#FF725E"/>
<path d="M297.133 312.37C296.481 311.56 295.65 310.911 294.706 310.474C293.761 310.037 292.729 309.824 291.689 309.851C290.649 309.878 289.629 310.144 288.709 310.629C287.788 311.114 286.992 311.804 286.382 312.647C285.771 313.49 285.364 314.462 285.19 315.487C285.017 316.513 285.082 317.565 285.381 318.562C285.68 319.558 286.205 320.472 286.914 321.233C287.624 321.994 288.499 322.581 289.473 322.948C289.947 323.127 290.394 323.168 290.969 323.29L297.294 324.868C297.472 324.907 297.657 324.906 297.834 324.864C298.012 324.823 298.178 324.741 298.319 324.627C298.461 324.512 298.576 324.367 298.654 324.203C298.732 324.038 298.772 323.858 298.771 323.675L298.562 317.268C298.563 316.731 298.537 316.194 298.484 315.659C298.335 314.462 297.869 313.326 297.133 312.37ZM293.716 318.912C293.259 319.284 292.701 319.511 292.113 319.566C291.526 319.621 290.936 319.5 290.417 319.219C289.898 318.938 289.475 318.51 289.2 317.988C288.925 317.466 288.811 316.874 288.872 316.288C288.934 315.701 289.168 315.146 289.545 314.692C289.923 314.239 290.426 313.907 290.992 313.74C291.557 313.573 292.16 313.577 292.723 313.753C293.286 313.928 293.785 314.267 294.155 314.726C294.402 315.029 294.586 315.378 294.698 315.753C294.809 316.128 294.846 316.521 294.805 316.91C294.764 317.299 294.647 317.676 294.46 318.019C294.273 318.363 294.021 318.666 293.716 318.912Z" fill="#FF725E"/>
<path d="M181.04 319.98C180.388 319.167 179.557 318.516 178.613 318.077C177.668 317.637 176.634 317.422 175.593 317.448C174.551 317.474 173.53 317.739 172.608 318.225C171.686 318.71 170.888 319.401 170.277 320.245C169.666 321.089 169.259 322.063 169.086 323.09C168.913 324.118 168.979 325.171 169.28 326.169C169.581 327.166 170.108 328.081 170.82 328.841C171.533 329.601 172.411 330.187 173.387 330.552C173.86 330.731 174.308 330.772 174.889 330.901L181.214 332.479C181.397 332.524 181.588 332.526 181.771 332.485C181.955 332.443 182.127 332.361 182.273 332.242C182.42 332.124 182.537 331.974 182.616 331.803C182.695 331.632 182.733 331.445 182.728 331.257L182.519 324.849C182.52 324.312 182.494 323.775 182.441 323.241C182.273 322.048 181.789 320.923 181.04 319.98ZM177.63 326.515C177.173 326.888 176.615 327.115 176.027 327.17C175.44 327.225 174.85 327.104 174.331 326.823C173.812 326.542 173.389 326.114 173.114 325.592C172.839 325.07 172.725 324.478 172.786 323.892C172.848 323.305 173.082 322.75 173.459 322.296C173.836 321.843 174.34 321.511 174.906 321.344C175.471 321.177 176.074 321.181 176.637 321.357C177.2 321.532 177.699 321.871 178.069 322.33C178.565 322.944 178.797 323.729 178.715 324.513C178.632 325.298 178.243 326.018 177.63 326.515Z" fill="#455A64"/>
<path d="M20.6227 565.302C19.8189 564.294 18.7927 563.485 17.6243 562.939C16.456 562.392 15.1771 562.124 13.8878 562.154C12.5984 562.184 11.3335 562.512 10.1919 563.112C9.05026 563.712 8.06292 564.568 7.30704 565.613C6.55115 566.658 6.0472 567.864 5.8346 569.136C5.62199 570.408 5.70648 571.712 6.08147 572.946C6.45646 574.18 7.11179 575.31 7.99621 576.249C8.88063 577.188 9.97018 577.909 11.1797 578.357C11.7766 578.538 12.3824 578.688 12.9948 578.807L20.8118 580.766C21.0387 580.825 21.2763 580.83 21.5055 580.781C21.7346 580.732 21.949 580.629 22.1314 580.482C22.3138 580.334 22.4591 580.146 22.5557 579.933C22.6523 579.719 22.6975 579.486 22.6876 579.252L22.4085 571.352C22.4244 570.678 22.4016 570.004 22.3399 569.333C22.1376 567.86 21.5447 566.468 20.6227 565.302ZM16.399 573.398C15.8323 573.856 15.1426 574.135 14.4171 574.201C13.6917 574.266 12.963 574.115 12.3233 573.767C11.6837 573.418 11.1617 572.888 10.8234 572.243C10.4851 571.598 10.3457 570.867 10.4229 570.143C10.5 569.418 10.7902 568.733 11.2568 568.174C11.7233 567.614 12.3453 567.206 13.044 567C13.7427 566.794 14.4868 566.8 15.1822 567.017C15.8775 567.234 16.493 567.652 16.9506 568.219C17.5643 568.979 17.8509 569.951 17.7475 570.923C17.644 571.894 17.159 572.784 16.399 573.398Z" fill="#455A64"/>
<path d="M230.048 222.508C230.048 222.508 237.961 216.466 240.03 217.042C242.098 217.618 243.315 218.998 243.315 218.998C243.315 218.998 259.949 217.717 259.828 220.139C259.763 221.45 255.727 222.432 247.854 222.928C247.854 222.928 250.758 225.968 248.313 227.346C248.313 227.346 250.335 229.82 247.674 231.73C247.674 231.73 247.749 234.607 245.528 235.331C243.306 236.056 234.236 236.618 229.834 235.208C225.431 233.799 226.946 224.644 226.946 224.644L230.048 222.508Z" fill="#EEC1BB"/>
<path opacity="0.3" d="M234.934 227.947C234.323 227.947 233.733 227.82 233.211 227.562C233.053 227.484 232.989 227.294 233.066 227.136C233.145 226.98 233.337 226.916 233.491 226.992C234.548 227.514 235.943 227.395 237.133 226.68C238.262 226.006 239.723 224.327 240.38 223.182C240.442 223.073 240.56 223.007 240.688 223.025C240.813 223.037 240.919 223.123 240.957 223.242C241.484 224.849 243.695 226.827 245.244 226.723C246.074 226.669 246.394 226.376 246.467 225.603C246.5 225.264 245.962 224.478 245.675 224.056C245.565 223.896 245.469 223.754 245.399 223.641C244.984 222.959 244.474 222.049 243.98 221.168C243.49 220.293 242.983 219.387 242.574 218.716C242.482 218.567 242.529 218.371 242.679 218.279C242.827 218.19 243.023 218.234 243.114 218.385C243.531 219.067 244.041 219.977 244.535 220.858C245.025 221.733 245.532 222.638 245.941 223.309C246.007 223.416 246.098 223.549 246.199 223.698C246.721 224.462 247.149 225.138 247.1 225.663C246.997 226.744 246.42 227.283 245.286 227.356C243.561 227.455 241.458 225.706 240.601 224.025C239.822 225.174 238.54 226.579 237.459 227.225C236.662 227.703 235.778 227.947 234.934 227.947Z" fill="black"/>
<path opacity="0.3" d="M242.308 235.443C242.061 235.443 241.812 235.424 241.564 235.37C240.896 235.224 240.362 234.824 240.132 234.301C239.725 233.369 240.325 232.336 241.053 231.771C241.42 231.486 241.832 231.267 242.268 231.118C242.107 231.036 241.956 230.944 241.814 230.842C240.962 230.23 240.472 229.234 240.564 228.303C240.668 227.241 241.592 226.353 242.587 226.353H242.608C242.784 226.355 242.925 226.499 242.922 226.674C242.92 226.849 242.762 226.98 242.601 226.988H242.587C241.916 226.988 241.269 227.628 241.197 228.365C241.126 229.075 241.514 229.844 242.184 230.326C242.561 230.596 243.026 230.787 243.556 230.892C243.897 230.891 244.228 230.919 244.559 230.994C244.718 231.03 244.824 231.18 244.804 231.342C244.785 231.502 244.649 231.621 244.489 231.621H244.485C244.143 231.617 243.815 231.585 243.505 231.528C242.763 231.556 242.033 231.814 241.442 232.273C240.884 232.705 240.455 233.453 240.714 234.046C240.862 234.384 241.23 234.647 241.7 234.75C242.163 234.851 242.665 234.801 243.15 234.752C243.318 234.728 243.48 234.862 243.498 235.036C243.515 235.211 243.387 235.366 243.212 235.384C242.927 235.412 242.621 235.443 242.308 235.443Z" fill="black"/>
<path d="M226.197 223.15C225.771 223.516 189.148 237.572 189.148 237.572L181.101 214.677C179.179 209.21 176.771 203.926 173.867 198.911C170.276 192.71 165.627 185.729 163.359 186.665C156.855 189.349 156.48 217.108 156.755 217.392C157.199 217.849 168.702 265.172 184.757 263.502C200.811 261.832 230.548 236.135 230.548 236.135L226.197 223.15Z" fill="#9085DE"/>
<path d="M105.056 310.075L108.884 322.96C108.884 322.96 107.568 325.876 107.133 328.147C106.698 330.418 106.293 333.327 108.287 336.612C110.281 339.898 111.279 337.234 111.279 337.234C113.726 340.252 116.165 337.963 116.165 337.963C118.236 340.653 121.036 338.456 121.036 338.456C121.036 338.456 124.556 336.446 125.508 334.848C126.461 333.249 124.838 326.754 124.838 326.754L120.396 321.697L118.689 306.556C118.428 306.609 105.056 310.075 105.056 310.075Z" fill="#EEC1BB"/>
<path d="M149.735 179.584C149.735 179.584 151.665 171.368 148.126 156.488C148.128 156.473 148.917 156.168 148.918 156.152C148.432 154.071 147.9 152.144 147.392 150.472C147.381 150.424 147.382 150.408 147.382 150.408L166.848 163.79C166.148 168.459 167.39 177.607 168.208 181.485C168.208 181.485 170.404 188.543 161.165 188.396C154.415 188.29 149.735 179.584 149.735 179.584Z" fill="#EEC1BB"/>
<path d="M143.091 116.389C143.091 116.389 149.09 102.7 165.8 108.38C176.332 111.961 183.817 116.666 182.705 126.175C181.965 132.497 175.858 137.217 171.972 136.946C168.085 136.675 139.748 126.881 139.748 126.881C139.748 126.881 133.375 119.073 143.091 116.389Z" fill="#263238"/>
<path opacity="0.3" d="M156.386 167.166C158.798 169.927 162.992 171.482 166.837 171.564C166.781 171.222 166.791 170.708 166.751 170.367C166.686 169.832 166.691 169.013 166.661 168.449C166.63 167.758 166.618 167.007 166.654 166.291C166.687 166.007 166.801 166.049 166.835 165.765L166.903 165.181L155.257 161.228C154.313 161.917 154.441 164.923 156.386 167.166Z" fill="black"/>
<path d="M140.624 138.59C137.834 126.088 148.695 114.576 161.662 117.583C174.822 120.635 179.536 139.102 178.634 150.879C177.633 163.963 162.97 172.232 151.823 164.014C144.412 158.551 143.414 151.092 140.624 138.59Z" fill="#EEC1BB"/>
<path d="M149.62 118.963C149.62 118.963 160.766 129.332 171.655 123.973C182.545 118.612 158.523 107.906 149.62 118.963Z" fill="#263238"/>
<path d="M151.846 143.025C149.813 145.382 148.054 142.985 143.227 140.427C142.565 140.076 141.837 139.8 140.827 139.769C141.961 143.951 143.054 147.419 143.937 149.913C144.202 150.661 144.484 151.341 144.798 151.97C141.057 147.477 136.759 142.137 135.405 139.719C135.131 139.231 134.914 138.757 134.747 138.296C134.819 138.127 134.893 137.961 134.975 137.8C135.32 137.09 135.753 136.438 136.252 135.835C137.045 134.887 138.014 134.065 139.084 133.358C142.554 131.054 146.463 130.038 149.782 129.493C150.114 133.467 153.509 141.094 151.846 143.025Z" fill="#263238"/>
<path d="M152.697 122.079C152.697 122.079 149.675 124.553 149.716 127.568C149.757 130.583 150.656 133.683 150.656 133.683C150.656 133.683 141.488 136.541 139.231 135.913C136.974 135.287 135.862 128.675 135.862 128.675C135.862 128.675 147.144 117.735 151.151 118.427C155.158 119.119 152.697 122.079 152.697 122.079Z" fill="#263238"/>
<path d="M143.472 118.415C143.472 118.415 138.299 116.978 134.8 122.381C131.3 127.785 132.678 134.714 134.747 138.296C136.816 141.878 149.629 130.506 143.472 118.415Z" fill="#263238"/>
<path d="M158.724 141.354C158.839 142.658 159.623 143.646 160.476 143.563C161.328 143.479 161.926 142.354 161.811 141.051C161.696 139.747 160.912 138.759 160.059 138.843C159.207 138.926 158.609 140.051 158.724 141.354Z" fill="#263238"/>
<path d="M171.358 140.501C171.473 141.805 172.257 142.794 173.11 142.71C173.962 142.626 174.56 141.502 174.445 140.198C174.33 138.895 173.546 137.906 172.693 137.99C171.841 138.074 171.243 139.198 171.358 140.501Z" fill="#263238"/>
<path d="M167.597 138.937C167.597 138.937 172.295 145.049 173.851 147.569C172.181 149.368 168.99 148.889 168.99 148.889L167.597 138.937Z" fill="#D8847C"/>
<path d="M155.375 134.305C155.579 134.368 155.811 134.323 155.98 134.165C157.94 132.337 159.993 132.752 160.208 132.8C160.536 132.879 160.87 132.677 160.952 132.349C161.034 132.022 160.832 131.692 160.505 131.613C160.389 131.584 157.633 130.956 155.144 133.278C154.896 133.51 154.882 133.896 155.112 134.141C155.187 134.221 155.278 134.275 155.375 134.305Z" fill="#263238"/>
<path d="M177.064 133.293C177.175 133.258 177.278 133.192 177.357 133.094C177.572 132.831 177.536 132.444 177.276 132.23C174.671 130.08 171.987 130.931 171.861 130.954C171.54 131.058 171.36 131.403 171.46 131.726C171.56 132.048 171.9 132.226 172.22 132.126C172.33 132.086 174.406 131.457 176.498 133.182C176.661 133.318 176.875 133.352 177.064 133.293Z" fill="#263238"/>
<path d="M159.628 151.617C159.628 151.617 162.776 153.573 168.293 153.58C168.293 153.58 167.293 157.36 163.756 157.048C159.478 156.67 159.628 151.617 159.628 151.617Z" fill="white"/>
<path d="M163.615 149.962C165.639 150.023 167.619 150.719 169.123 152.074C169.704 152.597 170.195 153.198 170.397 153.84C171.042 155.894 163.756 154.457 160.768 153.311C157.78 152.165 158.471 150.996 160.156 150.305C160.964 149.974 162.37 149.924 163.615 149.962Z" fill="#263238"/>
<path opacity="0.3" d="M149.978 130.49C149.978 130.49 144.665 133.905 139.35 132.924C134.034 131.942 132.656 130.769 132.656 130.769L133.042 133.662C133.042 133.662 137.527 136.303 143.017 136.003C148.508 135.704 150.833 134.333 150.833 134.333L149.978 130.49Z" fill="white"/>
<path d="M131.854 309.54C131.854 309.54 124.946 339.663 138.938 360.334C152.931 381.004 180.494 431.895 181.827 441.435C183.16 450.975 201.15 542.193 201.15 542.193L226.51 541.084C226.51 541.084 217.875 463.622 215.809 434.635C213.804 406.494 187.158 323.323 187.158 323.323C187.158 323.323 190.489 297.913 188.49 297.725C186.491 297.537 135.185 292.589 135.185 292.589L131.854 309.54Z" fill="#263238"/>
<path d="M125.857 417.391L131.82 337.288L169.834 367.666C169.834 367.666 164.218 428.631 156.888 438.966C149.559 449.301 82.2535 521.528 82.2535 521.528L61.0303 499.946L125.857 417.391Z" fill="#263238"/>
<path d="M177.517 195.3L170.081 184.364L167.722 176.742L149.421 164.556C149.421 164.556 147.217 169.847 147.158 170.119L186.504 224.649L183.903 210.78C182.863 205.235 180.689 199.965 177.517 195.3Z" fill="#263238"/>
<path opacity="0.7" d="M177.517 195.3L170.081 184.364L167.722 176.742L149.421 164.556C149.421 164.556 147.217 169.847 147.158 170.119L186.504 224.649L183.903 210.78C182.863 205.235 180.689 199.965 177.517 195.3Z" fill="white"/>
<path d="M131.769 235.317L134.531 271.374C134.531 271.374 126.54 306.009 126.402 326.587H195.72C195.72 326.587 194.797 298.891 192.98 277.542C191.162 256.192 189.321 234.369 186.098 217.763C182.875 201.158 167.58 183.13 167.58 183.13L147.51 167.709L142.333 175.431C142.333 175.431 128.488 183.028 123.83 186.925C120.389 189.804 100.942 248.033 98.6404 255.623C96.3383 263.214 106.009 319.726 106.009 319.726L121.179 317.56L120.258 260.462L131.769 235.317Z" fill="#9085DE"/>
<path opacity="0.6" d="M164.352 412.101C164.352 412.101 128.092 355.243 131.669 339.301L165.801 402.312L164.352 412.101Z" fill="black"/>
<path d="M87.8439 479.439L67.6738 505.788L76.1037 512.826L101.962 492.258L87.8439 479.439Z" fill="#263238"/>
<path d="M56.0005 511.818L61.1142 519.794C61.1142 519.794 63.0054 520.857 63.4985 521.877C63.988 522.896 65.4678 526.582 65.4678 526.582L79.0485 547.762C79.828 547.024 80.484 546.308 81.0325 545.62C81.701 544.782 82.2088 543.98 82.5811 543.213C83.8813 540.528 83.4953 538.249 82.3695 536.223C80.6541 533.138 80.899 519.81 80.899 519.81C80.899 519.81 79.912 515.665 83.3989 513.17C84.7054 512.234 85.0759 509.181 84.6026 508.145C83.6403 506.029 81.7229 505.738 79.6061 506.697L77.1483 507.815L74.9768 502.894C74.9768 502.894 74.3493 496.874 72.2658 498.522C71.0768 499.463 65.9119 503.854 61.7324 507.211C60.7588 507.994 59.8363 508.733 59.0275 509.382L59.028 509.385C57.2327 510.825 56.0005 511.818 56.0005 511.818Z" fill="#263238"/>
<g opacity="0.2">
<path d="M79.0481 547.762L65.4677 526.582C65.4677 526.582 63.9877 522.896 63.4981 521.878C63.005 520.857 61.114 519.794 61.114 519.794L56 511.818C56 511.818 57.2324 510.825 59.0277 509.385L81.0322 545.62C80.4837 546.308 79.8276 547.024 79.0481 547.762Z" fill="white"/>
</g>
<path d="M81.5666 525.939C81.5998 525.779 81.5131 525.621 81.3636 525.556C80.6784 525.254 79.9035 525.129 79.0938 525.225C78.667 525.275 78.6577 525.952 79.0885 525.901C79.808 525.816 80.4906 525.922 81.0902 526.185C81.2905 526.272 81.5207 526.161 81.5652 525.946L81.5666 525.939Z" fill="#9085DE"/>
<path d="M81.4783 523.618C81.5114 523.459 81.4246 523.301 81.2753 523.235C80.5899 522.933 79.8148 522.808 79.0054 522.904C78.5788 522.955 78.5692 523.631 79 523.58C79.7194 523.495 80.402 523.601 81.0018 523.864C81.2021 523.952 81.4321 523.84 81.4767 523.625L81.4783 523.618Z" fill="#9085DE"/>
<path d="M81.2903 521.286C81.3236 521.126 81.2369 520.968 81.0874 520.903C80.4021 520.601 79.627 520.476 78.8175 520.572C78.3907 520.622 78.3812 521.299 78.8123 521.248C79.5316 521.162 80.2141 521.269 80.8138 521.532C81.0142 521.619 81.2444 521.507 81.2889 521.293L81.2903 521.286Z" fill="#9085DE"/>
<path d="M195.72 515.557L208.196 546.305L218.537 542.61L213.929 509.893L195.72 515.557Z" fill="#263238"/>
<path d="M207.471 559.424L216.939 559.063C216.939 559.063 218.814 557.972 219.944 558.065C221.069 558.159 224.997 558.754 224.997 558.754L250.139 557.794C249.898 556.748 249.614 555.819 249.299 554.997C248.916 553.996 248.483 553.152 248.01 552.442C246.356 549.959 244.196 549.136 241.879 549.078C238.35 548.992 226.989 542.02 226.989 542.02C226.989 542.02 222.916 540.768 222.534 536.498C222.39 534.897 219.948 533.029 218.814 532.911C216.502 532.667 215.279 534.172 215.032 536.483L214.748 539.168L209.406 538.543C209.406 538.543 203.9 536.03 204.263 538.662C204.471 540.164 205.635 546.842 206.408 552.147C206.589 553.383 206.758 554.553 206.907 555.579L206.91 555.58C207.241 557.858 207.471 559.424 207.471 559.424Z" fill="#263238"/>
<g opacity="0.2">
<path d="M250.139 557.794L224.997 558.754C224.997 558.754 221.069 558.159 219.944 558.065C218.814 557.972 216.939 559.063 216.939 559.063L207.471 559.424C207.471 559.424 207.241 557.858 206.91 555.58L249.299 554.997C249.614 555.819 249.898 556.748 250.139 557.794Z" fill="white"/>
</g>
<path d="M232.61 544.554C232.489 544.444 232.308 544.439 232.176 544.535C231.569 544.972 231.067 545.576 230.739 546.323C230.567 546.716 231.145 547.068 231.319 546.67C231.611 546.007 232.049 545.473 232.579 545.089C232.756 544.961 232.777 544.706 232.615 544.559L232.61 544.554Z" fill="#9085DE"/>
<path d="M230.564 543.453C230.443 543.343 230.263 543.338 230.131 543.433C229.523 543.871 229.022 544.475 228.694 545.221C228.521 545.615 229.099 545.966 229.274 545.569C229.565 544.906 230.003 544.371 230.534 543.988C230.711 543.86 230.731 543.605 230.569 543.457L230.564 543.453Z" fill="#9085DE"/>
<path d="M228.46 542.432C228.339 542.322 228.159 542.316 228.026 542.412C227.419 542.849 226.918 543.454 226.59 544.2C226.417 544.594 226.995 544.945 227.17 544.547C227.461 543.884 227.899 543.35 228.43 542.967C228.607 542.838 228.627 542.583 228.465 542.436L228.46 542.432Z" fill="#9085DE"/>
<path opacity="0.3" d="M131.769 235.318L133.324 255.624L139.604 218.987L131.769 235.318Z" fill="black"/>
<path opacity="0.3" d="M142.333 175.431C142.869 175.978 165.127 190.064 165.127 190.064L168.782 191.139L168.212 195.01L185.472 215.061C185.472 215.061 183.054 207.454 180.947 203.497C178.84 199.54 172.292 188.562 167.58 183.13L147.51 167.709C145.583 170.593 143.839 173.194 142.333 175.431Z" fill="black"/>
<path d="M137.135 147.679C138.491 150.986 141.253 153.342 143.987 154.411C148.1 156.021 149.189 151.582 148.448 147.455C147.781 143.741 146.285 139.276 141.963 139.431C137.706 139.584 135.585 143.899 137.135 147.679Z" fill="#EEC1BB"/>
<path opacity="0.2" d="M146.207 147.502C146.059 147.502 145.926 147.398 145.895 147.248C145.676 146.175 145.178 145.173 144.455 144.351C143.985 143.818 143.221 143.151 142.245 143.001C141.367 142.863 140.472 143.252 140.105 143.916C140.019 144.07 139.825 144.124 139.673 144.04C139.52 143.955 139.465 143.762 139.549 143.608C140.05 142.705 141.198 142.196 142.342 142.373C143.505 142.553 144.392 143.319 144.932 143.931C145.728 144.836 146.276 145.939 146.518 147.121C146.553 147.292 146.442 147.46 146.27 147.496C146.249 147.5 146.228 147.502 146.207 147.502Z" fill="black"/>
<path opacity="0.3" d="M145.512 289.816H178.329L176.674 299.232H143.046L145.512 289.816Z" fill="black"/>
<path opacity="0.3" d="M194.215 260.682L189.148 237.572L191.581 261.751L194.215 260.682Z" fill="black"/>
</g>
<defs>
<clipPath id="clip0_38_68190">
<rect width="308" height="731" fill="white" transform="matrix(-1 0 0 1 308 0)"/>
</clipPath>
</defs>
</svg>
