<svg width="23" height="23" viewBox="0 0 23 23" fill="none" xmlns="http://www.w3.org/2000/svg">
<g clip-path="url(#clip0_37_58783)">
<path d="M21.7895 4.31509C21.6633 3.64919 21.4172 3.04212 21.0755 2.55433C20.7339 2.06654 20.3087 1.71507 19.8423 1.5349C18.1349 0.870117 11.2638 0.870117 11.2638 0.870117C11.2638 0.870117 4.3924 0.890291 2.68525 1.55508C2.2189 1.73527 1.79376 2.08676 1.45215 2.57454C1.11053 3.06233 0.864371 3.66939 0.738175 4.33527C0.221737 8.66694 0.0213781 15.267 0.752303 19.4251C0.878499 20.091 1.12466 20.6981 1.46627 21.1859C1.80789 21.6736 2.23303 22.0251 2.69937 22.2053C4.40666 22.8701 11.2779 22.8701 11.2779 22.8701C11.2779 22.8701 18.1492 22.8701 19.8565 22.2053C20.3228 22.0251 20.748 21.6736 21.0896 21.1859C21.4312 20.6981 21.6773 20.091 21.8035 19.4251C22.3481 15.0875 22.516 8.49152 21.7894 4.31528L21.7895 4.31509Z" fill="#FF0000"/>
<path d="M8.5249 17.2587L17.0612 12.3145L8.5249 7.37012V17.2587Z" fill="white"/>
</g>
<defs>
<clipPath id="clip0_37_58783">
<rect x="0.274902" y="0.870117" width="22" height="22" rx="11" fill="white"/>
</clipPath>
</defs>
</svg>
