<svg width="182" height="12" viewBox="0 0 182 12" fill="none" xmlns="http://www.w3.org/2000/svg">
<path d="M5.00044 10.9997C2.24356 10.9997 0.018652 8.75648 0.0413505 5.99983C0.0640489 3.24319 2.3259 1 5.08277 1C7.83965 1 10.064 3.24319 10.0414 5.99983C10.0187 8.75648 7.75782 10.9997 5.00044 10.9997ZM5.06596 3.04158C3.4346 3.04158 2.09654 4.36861 2.0831 5.99983C2.06967 7.63106 3.38589 8.95808 5.01725 8.95808C6.64861 8.95808 7.98616 7.63106 7.9996 5.99983C8.01303 4.36861 6.69732 3.04158 5.06596 3.04158Z" fill="#AE9CC4"/>
<path d="M167.001 5.93726L156.996 0.171677L157.006 11.7192L167.001 5.93726ZM14.0416 7.0623L158.002 6.94465L158 4.94457L14.04 5.06221L14.0416 7.0623Z" fill="#79767A"/>
<path d="M175.959 10.9997C178.72 10.9997 180.977 8.76116 181 5.99983C181.023 3.2385 178.803 1 176.041 1C173.28 1 171.023 3.2385 171 5.99983C170.977 8.76116 173.197 10.9997 175.959 10.9997Z" fill="#AE9CC4"/>
</svg>
