<svg width="40" height="40" viewBox="0 0 40 40" fill="none" xmlns="http://www.w3.org/2000/svg">
<circle cx="20" cy="20" r="20" fill="#E5DEFF"/>
<g clip-path="url(#clip0_392_115)">
<path d="M20 31.1073C20.42 31.0975 20.823 30.9378 21.1378 30.6566C21.4525 30.3753 21.6588 29.9906 21.72 29.5704H18.2134C18.2764 30.002 18.4923 30.3958 18.8209 30.6785C19.1496 30.9612 19.5686 31.1136 20 31.1073Z" fill="#212121"/>
<path d="M29.6734 26.7595C29.0306 26.18 28.4677 25.5157 28.0001 24.7845C27.4896 23.7751 27.1836 22.6727 27.1001 21.5422V18.2122C27.0974 17.8078 27.0617 17.4042 26.9934 17.0056C26.4687 16.8996 25.9644 16.7084 25.5001 16.4394C25.6771 17.0157 25.767 17.6156 25.7668 18.219V21.5489C25.8485 22.9281 26.2237 24.2732 26.8668 25.4922C27.327 26.2297 27.8732 26.9086 28.4934 27.5145H11.4201C12.0404 26.9086 12.5865 26.2297 13.0468 25.4922C13.6899 24.2732 14.0651 22.9281 14.1468 21.5489V18.2122C14.1433 17.4321 14.292 16.659 14.5844 15.937C14.8768 15.2151 15.3072 14.5586 15.8509 14.0051C16.3946 13.4516 17.041 13.012 17.753 12.7114C18.4649 12.4108 19.2286 12.2552 20.0001 12.2534C21.1293 12.2543 22.2331 12.592 23.1734 13.2241C23.0698 12.8392 23.0116 12.4432 23.0001 12.0445V11.6198C22.304 11.2736 21.5562 11.0458 20.7868 10.9457V10.0964C20.7868 9.85772 20.693 9.62883 20.5261 9.46007C20.3592 9.2913 20.1328 9.1965 19.8968 9.1965C19.6607 9.1965 19.4344 9.2913 19.2675 9.46007C19.1005 9.62883 19.0068 9.85772 19.0068 10.0964V10.9794C17.2839 11.2252 15.7072 12.0928 14.5676 13.4222C13.428 14.7516 12.8026 16.453 12.8068 18.2122V21.5422C12.7233 22.6727 12.4173 23.7751 11.9068 24.7845C11.4474 25.514 10.8936 26.1783 10.2601 26.7595C10.189 26.8227 10.132 26.9004 10.0929 26.9876C10.0538 27.0748 10.0336 27.1693 10.0334 27.2651V28.1818C10.0334 28.3606 10.1037 28.532 10.2287 28.6584C10.3537 28.7848 10.5233 28.8559 10.7001 28.8559H29.2334C29.4103 28.8559 29.5798 28.7848 29.7049 28.6584C29.8299 28.532 29.9001 28.3606 29.9001 28.1818V27.2651C29.9 27.1693 29.8797 27.0748 29.8406 26.9876C29.8016 26.9004 29.7446 26.8227 29.6734 26.7595Z" fill="black"/>
<path d="M28.0001 15.4148C29.841 15.4148 31.3334 13.9058 31.3334 12.0444C31.3334 10.183 29.841 8.67407 28.0001 8.67407C26.1591 8.67407 24.6667 10.183 24.6667 12.0444C24.6667 13.9058 26.1591 15.4148 28.0001 15.4148Z" fill="#FD632F"/>
</g>
<defs>
<clipPath id="clip0_392_115">
<rect width="24" height="24.2667" fill="white" transform="translate(8 8)"/>
</clipPath>
</defs>
</svg>
