<svg width="29" height="25" viewBox="0 0 29 25" fill="none" xmlns="http://www.w3.org/2000/svg">
<path d="M16.1 16.4954C16.1 12.7666 17.5 9.309 20.3 6.12256C23.1 2.93612 25.5 0.936119 27.5 0.122559L29 2.25815C27 3.3429 25.3 4.90222 23.9 6.93612C22.5667 8.97002 21.8 11.0717 21.6 13.2412C22.1333 12.9022 22.9667 12.7327 24.1 12.7327C25.3 12.7327 26.3333 13.2751 27.2 14.3598C28.0667 15.3768 28.5 16.7327 28.5 18.4276C28.5 20.1226 27.8667 21.5124 26.6 22.5971C25.4 23.6141 23.9 24.1226 22.1 24.1226C20.3 24.1226 18.8333 23.4785 17.7 22.1904C16.6333 20.9022 16.1 19.0039 16.1 16.4954ZM6 24.1226C4.26667 24.1226 2.83333 23.1734 1.7 21.2751C0.566667 19.3768 0 17.2751 0 14.97C0 12.6649 0.466667 10.631 1.4 8.86832C2.33333 7.03781 3.5 5.54629 4.9 4.39374C7.56667 2.22425 9.73333 0.800524 11.4 0.122559L12.9 2.25815C10.9 3.3429 9.2 4.90222 7.8 6.93612C6.46667 8.97002 5.7 11.0717 5.5 13.2412C6.03333 12.9022 6.86667 12.7327 8 12.7327C9.2 12.7327 10.2333 13.2751 11.1 14.3598C11.9667 15.3768 12.4 16.7327 12.4 18.4276C12.4 20.1226 11.7667 21.5124 10.5 22.5971C9.3 23.6141 7.8 24.1226 6 24.1226Z" fill="#00102B"/>
</svg>
