<svg width="120" height="25" viewBox="0 0 120 25" fill="none" xmlns="http://www.w3.org/2000/svg">
<path d="M12 4.87256L13.75 10.3726H19.25L14.75 13.8726L16.25 19.3726L12 15.8726L7.75 19.3726L9.25 13.8726L4.75 10.3726H10.25L12 4.87256Z" fill="#FEC84B" stroke="#FEAA1D" stroke-width="1.5" stroke-linecap="round" stroke-linejoin="round"/>
<path d="M36 4.87256L37.75 10.3726H43.25L38.75 13.8726L40.25 19.3726L36 15.8726L31.75 19.3726L33.25 13.8726L28.75 10.3726H34.25L36 4.87256Z" fill="#FEC84B" stroke="#FEAA1D" stroke-width="1.5" stroke-linecap="round" stroke-linejoin="round"/>
<path d="M60 4.87256L61.75 10.3726H67.25L62.75 13.8726L64.25 19.3726L60 15.8726L55.75 19.3726L57.25 13.8726L52.75 10.3726H58.25L60 4.87256Z" fill="#FEC84B" stroke="#FEAA1D" stroke-width="1.5" stroke-linecap="round" stroke-linejoin="round"/>
<path d="M84 4.87256L85.75 10.3726H91.25L86.75 13.8726L88.25 19.3726L84 15.8726L79.75 19.3726L81.25 13.8726L76.75 10.3726H82.25L84 4.87256Z" fill="#FEC84B" stroke="#FEAA1D" stroke-width="1.5" stroke-linecap="round" stroke-linejoin="round"/>
<path d="M108 4.87256L109.75 10.3726H115.25L110.75 13.8726L112.25 19.3726L108 15.8726L103.75 19.3726L105.25 13.8726L100.75 10.3726H106.25L108 4.87256Z" fill="#FEF3C7" stroke="#FEC84B" stroke-width="1.5" stroke-linecap="round" stroke-linejoin="round"/>
</svg>
