<svg width="24" height="25" viewBox="0 0 24 25" fill="none" xmlns="http://www.w3.org/2000/svg">
<path fill-rule="evenodd" clip-rule="evenodd" d="M0.398926 12.3699C0.398926 6.09047 5.48939 1 11.7688 1C18.0482 1 23.1387 6.09047 23.1387 12.3699C23.1387 18.6493 18.0482 23.7398 11.7688 23.7398C5.48939 23.7398 0.398926 18.6493 0.398926 12.3699Z" fill="white" stroke="#E5E5E5" stroke-width="0.710618"/>
<path d="M16.1883 9.57447L16.8851 8.77346C17.0869 8.55652 17.1419 8.38965 17.1602 8.30621C16.6101 8.60659 16.0966 8.70671 15.7665 8.70671H15.6381L15.5648 8.63996C15.1246 8.28952 14.5745 8.10596 13.9876 8.10596C12.7039 8.10596 11.6953 9.07384 11.6953 10.1919C11.6953 10.2587 11.6953 10.3588 11.7137 10.4255L11.7687 10.7593L11.3836 10.7426C9.03624 10.6759 7.1107 8.84022 6.79894 8.52315C6.28546 9.35753 6.57888 10.1585 6.89064 10.6592L7.51414 11.5937L6.52386 11.0931C6.5422 11.7939 6.83562 12.3446 7.40411 12.7451L7.89925 13.0789L7.40411 13.2625C7.71587 14.1135 8.41273 14.464 8.92621 14.5975L9.60474 14.7643L8.96289 15.1649C7.93593 15.8324 6.65223 15.7823 6.08374 15.7322C7.23907 16.4665 8.61446 16.6334 9.56806 16.6334C10.2833 16.6334 10.8151 16.5666 10.9434 16.5166C16.0782 15.4152 16.3166 11.2432 16.3166 10.4089V10.292L16.4267 10.2253C17.0502 9.69129 17.3069 9.4076 17.4536 9.24072C17.3986 9.25741 17.3253 9.29078 17.2519 9.30747L16.1883 9.57447Z" fill="#212B36"/>
</svg>
